<svg version="1.1" baseProfile="tiny" id="Layer_1" xmlns="http://www.w3.org/2000/svg" xmlns:xlink="http://www.w3.org/1999/xlink"
                  	 x="0px" y="0px" width="229px" height="118px" viewBox="0 0 229 118.3" xml:space="preserve">
                  <g>
                  	<path fill="#1d548c" d="M36.1,21.2c-3.8-1.7-3.8-4.6-3.8-4.7v-0.1l0,0C32.1,11.8,37.7,6.9,43,5.3c3.9-1.1,6-0.9,11.6,0.7
                  		c6,1.8,7.5,1.5,8.8,0.6c0.7-0.4,1.1-0.4,1.2-0.3c0,0,0,0.2-0.3,0.4l-0.5,0.5c-2.1,1.9-3.6,3.2-5.3,6.7l-0.8,1.8
                  		c-1.5,3.4-4.2,9.7-7.2,12.5c-3.9,3.5-6.6,4.4-11,3.7c-2.2-0.4-3.2-0.9-3.3-1.3c0-0.1,0-0.1,0-0.1c0.1-0.2,0.3-0.1,1.1,0.2
                  		c0.6,0.2,1.3,0.5,2.2,0.6c3.5,0.3,5.7,0.5,10.3-4.9c0.1-0.1,2.9-3.2,6.6-11.7c1.8-4.1,4.3-5.8,4.3-5.8l0.9-0.5l-1-0.1
                  		c0,0-2.7-0.2-6.9-1.3L53,6.8C50.7,6.1,47.4,5,43,6.5c-2.7,1-9,3.9-9.7,8.3c-0.2,0.9-0.6,3.8,2.6,5.3c3.7,1.7,8.4,1,10.5-0.5
                  		c3.3-2.4,3.2-2.4,6.1-5.5c1-1,1-1,1.1-0.9c0,0,0.4,0.4-0.4,1.3c-1.3,1.6-3.9,4.3-6.9,6.2C43.1,22.7,38.8,22.4,36.1,21.2"/>
                  	<path fill="#1d548c" d="M58.4,19.1l0.5-0.2c1.9-0.7,4.8-4,7.9-7.1c2.3-2.3,4.6-5,6.3-6.2c4.4-3.2,7.5-3.9,12-3.8
                  		c3.7,0.1,6.2,1.6,6.4,1.8c0,0,0.1,0.3,0,0.4c-0.1,0.2-0.3,0.2-0.3,0.2c-0.1,0-0.4-0.1-0.6-0.2C90,3.6,89,3.2,87.9,3.1
                  		c-4-0.5-9.7-0.4-14,3.2c-2.2,1.9-4.9,5-7.2,7.3c-2.5,2.5-4.5,4.2-5.7,4.9c-0.5,0.3-0.9,0.5-1.2,0.6c-0.4,0.2-0.6,0.2-0.7,0.4
                  		c-0.1,0.2,0.1,0.5,0.3,0.9c0.5,0.8,1.2,2.1,0.7,3.1c-0.6,1.1-2,5.1-1.6,5.8c0.4,0.7,1.5,1.6,3.5,0.6c2-1,2.8-2.7,3.3-4
                  		c0.5-1.4,0.9-2.4,0.3-2.8c-0.1-0.1-0.3-0.3-0.3-0.4s0.1-0.2,0.3-0.3c1.1-0.6,1.3-0.5,2-0.3l0.3,0.1l0.3,0.1c0.2,0.1,0.5,0.2,1,0.1
                  		l0.3-0.1c0.5-0.2,2-0.7,2.5-0.7c0.4,0,1,0.2,1.4,0.7c0.3,0.4,0.4,0.8,0.2,1.3c-0.3,1.3-1.1,3.1-1.5,4l-0.2,0.5
                  		c-0.2,0.5-0.1,1.1,0.3,1.5c0.2,0.2,0.6,0.4,1.3,0.1c1.3-0.6,2.1-1,2.6-1.7s1.7-3.6,1.8-4c0.1-0.2,0.1-0.4,0.1-0.5
                  		c0-0.2-0.1-0.5-0.4-0.8l-0.1-0.1c-0.2-0.2-0.3-0.3-0.3-0.4c0,0,0.1-0.1,0.7-0.3c1.6-0.5,2.6-0.4,2.8-0.1c0.2,0.5-0.1,1.3-0.6,2.5
                  		l-0.6,1.1c-0.9,1.7-1.5,2.8-1.3,3.3c0.1,0.3,0.2,0.7,0.6,0.8c0.4,0.1,0.9,0.1,1.6-0.3l0.3-0.2c1.1-0.5,1.5-0.7,2.3-2.1
                  		c0.5-0.9,1-2,1.4-3l0.7-1.4c0.2-0.4,1.3-0.8,1.7-0.6c0.2,0.1,0.2,0.4,0.1,0.8c-0.4,0.9-0.9,2-1.3,3c-0.7,1.5-1,2.2-1,2.5
                  		c0,0.4,0.1,0.7,0.4,0.9c0.3,0.2,0.7,0.3,1.2,0.1c1.1-0.3,3.2-1.2,3.7-1.8c0.5-0.5,0.6-0.9,1.2-2.2l0.3-0.7c0.5-1.1,0.7-1.6,0.4-1.9
                  		c-0.2-0.2-0.4-0.5-0.4-0.8c0-0.1,0-0.1,0.1-0.1c0.4-0.4,1.6-1,1.6-1l0.1-0.1v-0.1c0,0,1.5-3.5,2.7-4.4c1.4-1,3.6-1.5,3.7-1.6
                  		c0.2,0,0.4,0,0.6,0.1c0.1,0.1,0.1,0.1,0.1,0.2c0,0.1,0,0.2-0.7,0.5c0,0-2.2,0.6-2.7,1.3c-0.4,0.5-1.3,2.9-1.4,3.2L95.4,20l0.2,0.1
                  		c0.3,0.2,0.8,0.6,0.8,0.8c0.1,0.3,0.1,0.6,0,0.8c0,0-0.1,0.1-0.2,0.1L94.4,22l-0.1,0.2c-0.1,0.1-1.7,3.5-2,4.2
                  		c-0.2,0.6-0.4,1.6-0.1,2.2c0.1,0.2,0.4,0.4,0.8,0.3c1-0.1,3.3-0.9,3.8-1.3c0.1-0.1,0.2-0.1,0.3-0.1c0.1,0,0.2,0.1,0.2,0.1
                  		c0.1,0.1,0,0.4-0.3,0.6c-0.7,0.5-2.9,1.8-4,1.8c-1.2,0-2.3-0.8-2.6-1.4L90.2,29l-0.3,0.1c-0.1,0.1-3.6,1.6-4.8,1.7
                  		c-1.2,0.1-1.8-0.3-2-0.5c-0.2-0.3-0.3-0.5-0.3-0.5l-0.1-0.4l-0.4,0.2c0,0-2.5,1.6-4,1.5c-1.4-0.1-2.1-1.4-2.1-1.4L76,29.4l-0.3,0.2
                  		c0,0-2.6,1.5-3.7,1.5c-0.9,0-2.3-0.5-2.3-2c0-0.9,0.6-2.5,1.7-4.7l0.1-0.1c0.2-0.5,0.3-1,0-1.2c-0.2-0.2-0.5-0.3-1,0
                  		c-0.7,0.4-2.3,0.9-2.4,1H68l-2,5.3l-0.1,0.3c-0.2,0.6-0.5,1.3-1,1.4c-0.4,0.1-0.7,0.1-1,0c-0.3-0.2-0.3-0.5-0.3-0.5l-0.1-0.4
                  		l-0.4,0.2c0,0-3,1.2-4.5,1.1c-0.5-0.1-1-0.3-1.4-0.8c-0.5-0.7-0.8-1.6-0.7-2.5s0.7-2.5,1.2-3.9c0.4-1.1,0.7-2,0.8-2.5
                  		c0.2-1.1-0.1-1.9-0.4-2.2c0,0,0,0,0-0.1l0,0c0-0.1,0.1-0.3,0.1-0.3C58.3,19.1,58.4,19.1,58.4,19.1"/>
                  	<path fill="#1d548c" d="M118.9,29.1c1.3-0.7,2-1.1,2.2-1.7c0.1-0.3,3.7-9.6,4.8-11.7c0.9-2,4-4.9,7.6-4.8c0.7,0,1,0.2,1.1,0.3
                  		s0.1,0.2,0.1,0.2s-0.1,0.4-0.5,0.3c-0.8-0.1-4.7-0.3-6.9,5.1l-2.2,5.5l0.1,0.1c0.2,0.2,0.5,0.1,0.6,0l0.1-0.1
                  		c1.7-0.9,2.6-0.8,3-0.6c1.1,0.5,1.3,0.9,1.1,2c-0.2,0.7-0.7,2.1-1.2,3.3c-0.4,1.1-0.6,1.6-0.6,1.8c0,0.3,0.1,0.7,0.3,0.9
                  		c0.2,0.2,0.4,0.3,0.9,0.3c1-0.1,2.4-0.6,3.3-1.2c0.2-0.1,0.4-0.2,0.5-0.1c0.1,0,0.1,0.1,0.1,0.1c0,0.1-0.1,0.3-0.5,0.6
                  		c-0.8,0.5-2.4,1.4-4,1.4c-0.9,0-1.7-0.4-2.1-0.9c-0.3-0.4-0.3-1-0.1-1.6c0.7-1.9,1.4-4.3,1.5-4.6c0.1-0.3,0-0.6-0.2-0.8
                  		c-0.1-0.1-0.4-0.2-0.8,0H127c-1.7,0.8-2.6,1.4-2.8,1.9c-0.3,0.6-1.4,3.2-1.9,4.4c-0.5,1.2-1.1,1.7-1.4,1.7c-0.4,0-0.7-0.6-0.7-0.8
                  		c0-0.3-0.2-0.6-0.4-0.6c-0.1,0-0.4-0.1-0.7,0.2c-0.3,0.3-2.2,1.4-3.8,1.2c-0.6-0.1-1.1-0.4-1.4-0.8c-0.4-0.5-0.5-1.3-0.3-2
                  		c0.3-1.2,1.3-2.9,1.4-3.1l0.2-0.3l-0.3-0.2c-0.1,0-1-0.5-1.5-0.2l-0.2,0.1c-0.4,0.2-0.7,0.3-0.9,0.8v0.1c-0.5,2-1.7,5.4-5.1,5.9
                  		c-1.4,0.2-2.5-1-2.9-1.8l-0.1-0.2l-0.2,0.1c0,0-2.4,0.6-3,0.8c-0.1,0-0.2,0-0.2,0l0,0l0.6-0.3c1.8-0.8,2.6-1.3,2.8-1.7
                  		c0.4-1.1,2.3-6.3,5.9-6.3c2.2,0,2.6,1.4,2.6,1.4v0.1l0.1,0.1c0.1,0,0.7,0.4,1.8,0.1c1.1-0.3,1.8-0.7,2.4-1.1
                  		c0.7-0.4,1.4-0.8,2.5-0.9c1.4-0.1,2,0.7,2,0.7c0.1,0.1,0.1,0.6-0.1,0.8c-0.2,0.2-0.7,0.4-1,0.2l-0.2-0.2c-0.4-0.4-1.1-1-1.9-0.4
                  		c-0.5,0.4-2.9,2.4-2.8,5c0,0.9,0.3,1.5,0.8,1.8C117.1,29.9,118.1,29.5,118.9,29.1 M106.4,25.8c-0.4,1.2-0.5,2.9,0,3.8
                  		c0.2,0.4,0.5,0.6,0.9,0.6c1,0.1,2.3-0.2,3.7-3.3c0.4-0.9,0.6-2.8,0-3.8c-0.3-0.4-0.6-0.6-1.1-0.6C108.4,22.6,106.9,24.4,106.4,25.8
                  		"/>
                  	<path fill="#1d548c" d="M137.4,13.9L137.4,13.9c0-1.9,1.7-5.1,4.9-7.7c4.9-3.9,11.5-2.5,14.1-1.9c3.6,0.9,8.1,1.3,9.2,0.9
                  		c0.9-0.3,1.6-0.1,1.8,0.3c0.2,0.3,0.1,0.6-0.1,0.9l-0.2,0.2c-0.4,0.4-1.1,1.2-1.8,2.3c-0.5,0.8-2.7,6.3-4.6,11.2v0.1
                  		c-1.2,3-2.2,5.6-2.4,6.1c-0.4,0.9-1.2,1.7-1.6,2.2l-0.4,0.5c-0.1,0.2-0.1,0.4,0,0.5c0.2,0.3,0.8,0.5,3.6-0.1c3-0.7,4.5-2,4.6-2.1
                  		l0.1-0.1l1.1-2.9c0.5-1.2,4.4-9.7,6.2-13.1C174.2,7,180.4,5,183,5c1.2,0,3.1,0.5,4,1.5c0.6,0.6,1.2,1.6,1.2,2.7
                  		c-0.1,2.9-0.9,4.4-3.4,6.3c-2.7,2-4.9,2.4-5.6,2.5c-0.6,0.1-1.1-0.3-1.1-0.3s-0.1,0,0-0.1c0-0.1,0.1-0.1,0.2-0.1h0.1
                  		c0.5-0.1-0.2,0.2,2.8-0.8c5-1.7,6.2-4.1,6.3-6.7c0.1-2.7-1.4-3.9-4.5-4.1c-4.2-0.3-8.7,4.1-9.8,6.4c-0.6,1.2-4.4,9.8-5,11.3
                  		l-0.4,0.9c-0.7,1.7-1.6,3.8-0.5,4.4c1.3,0.8,3.1-0.8,3.3-1.2c0.3-0.4,2-4.4,2.1-4.9s-0.2-0.7-0.3-0.9l-0.1-0.1
                  		c0-0.1,0.5-0.4,1.7-0.5c0.8-0.1,1,0.1,1.1,0.2s0,0.5-0.1,0.7l-0.3,0.7c-0.4,1.1-1.4,3.4-1.6,3.9c-0.6,1.2-0.7,2-0.4,2.5
                  		c0.1,0.2,0.3,0.4,0.7,0.4c1.8,0.2,3.6-1.4,3.7-1.5l0.1-0.1V28c0,0,0.1-1.9,1.4-3.5c2.5-2.9,4.6-3.5,5.7-3.5c0.8,0,1.5,0.2,2,0.6
                  		c0.4,0.4,0.6,0.7,0.5,1s-0.5,0.5-1,0.5c-0.3,0-0.3-0.1-0.4-0.3c-0.1-0.4-0.2-1-1.3-1c-1.8-0.1-3.2,1.9-3.8,2.8
                  		c-0.6,0.8-1,2.8-0.4,4c0.3,0.6,0.8,1,1.4,1.1c2.1,0.4,4-1.4,4.1-1.4V28c0,0-0.3-1,1.6-3.4c1.5-2,4.3-3.1,6-3.1
                  		c0.5,0,1.2,0.1,1.5,0.6c0.3,0.3,0.3,0.7,0.3,1.1c-0.2,0.9-1.3,2.1-3.1,3.2c-1.3,0.8-2.4,0.7-3.1,0.6c-0.3,0-0.7-0.1-0.8,0.3
                  		c-0.3,1.1-0.2,1.8,1.3,2.5c2.8,1.2,7.3-2.6,7.8-3.1c0.3-0.3,0.8-0.5,1-0.5l0,0c0,0.1-0.1,0.3-0.8,1c-1.2,1.1-5,3.9-8.9,3.8
                  		c-1.8-0.1-2.5-1.3-2.5-1.4l-0.1-0.2l-0.3,0.1c0,0-3.6,1.4-5.2,1.4c-1.4,0-2.6-1.2-2.7-1.2l-0.1-0.1l-0.1-0.1l-0.2,0.1
                  		c-1.1,0.5-3.2,1.3-3.8,1.2c-0.8-0.1-1.3-0.3-1.7-0.7c-0.5-0.5-1-1-1.4-0.7c0,0-2,1.4-3.7,1.4c-1.5,0-1.9-1.6-1.9-1.6l-0.1-0.4
                  		L164,29c0,0-2.1,1.2-3.3,1.5c-1.3,0.4-3.7,0.8-4.9,0.8c-0.9,0-2.2-0.1-2.6-0.6c-0.2-0.4,0.1-0.8,1.1-1.7c0.6-0.5,1.7-2.4,3.3-5.6
                  		l0.1-0.2c0.1-0.2,0.1-0.4,0-0.6c-0.2-0.3-0.6-0.4-1.4-0.4h-0.5c-1.4-0.1-3.2,0.3-3.3,0.4h-0.1l-2.2,3c-3.7,4.5-6.9,6.1-10.9,5.8
                  		c-1.6-0.1-2.6-0.9-3-1.5c-0.1-0.2-0.1-0.3-0.1-0.3c0-0.1,0.3-0.4,0.7-0.3c0.2,0.3,1,1.2,3,1.2c6.1,0.1,9.1-5.3,12.8-10.6l0.5-0.7
                  		c3.4-5.6,9.8-12.6,9.8-12.7l0.6-0.5h-0.1c-0.1,0-1.7,0.4-5.5,0.1c-0.8-0.1-2.1-0.3-3.4-0.6c-2.1-0.4-5.2-0.7-6.6-0.6
                  		c-3.6,0.2-7.3,3.5-8.9,6.5c-0.8,1.4-1,3.1-0.5,4c0.7,1.4,1.9,1.8,3.5,2c3.5,0.6,8.6-1.7,11.4-4.2c0.3-0.3,0.6-0.4,0.8-0.5
                  		c0,0,0,0.1,0.1,0.1c0,0.1,0.1,0.3-0.1,0.6c-0.2,0.2-1.8,2-5.5,3.8c-3.9,1.8-7.7,1.7-10.1-0.3C138,16.3,137.4,15,137.4,13.9
                  		 M163.2,8.7c0,0-0.2,0.1-0.2,0.2l-0.2,0.2c-0.6,0.4-2,1.6-4.6,5c-1.8,2.3-4.6,6.5-4.6,6.6l-0.2,0.3l0,0c0.5,0.1,1.3,0.2,2.3,0.2
                  		c0.9,0,1.7,0.1,2.5-0.2l0,0c0.3-0.1,0.4-0.1,0.6-0.7l1.5-3.6c1-2.3,2.1-4.9,2.3-5.5c0.3-0.7,0.6-1.4,0.8-1.7
                  		c0.1-0.3,0.7-1.5,0.3-1.2l-0.2,0.1L163.2,8.7z M188.2,25.3v0.1l0,0l0.2,0.3c0.2,0.2,0.4,0.2,0.7,0.2c0.8-0.1,1.9-0.4,2.8-1.1
                  		c0,0,1.4-1.2,1.1-2c-0.1-0.4-0.5-0.6-1.2-0.6C189.8,22.3,188.3,24.7,188.2,25.3"/>
                  	<path fill="#1d548c" d="M175.1,17.2c-0.4,0.2-0.8,0.4-0.9,0.7c0,0.1-0.1,0.2-0.1,0.3c0,0.1,0,0.1,0,0.2c0.2,0.4,0.8,0.6,1.5,0.3
                  		c0.4-0.2,0.8-0.4,0.9-0.7c0.1-0.2,0.1-0.3,0-0.5C176.5,17.1,175.9,16.9,175.1,17.2"/>
                  	<path fill="#1d548c" d="M44.6,66.2c0.4-0.4,4.7-5.2,8.7-10.4C58.6,49,65.2,42,74,40c5.1-1.2,8.4,0.6,9,0.8c0.5,0.2,1,0.6,0.9,0.7
                  		c-0.1,0.4-0.5,0.4-1.2,0.2h-0.1c-3.6-1.2-6.3-1.2-8-0.8l-1.5,0.4C71,41.9,64,44,52.3,58.6l-0.4,0.5c-8,9.9-8.3,10.3-11.2,11.3
                  		c-1.1,0.4-1.3,0.2-1.3,0.1c0,0,0-0.1,0-0.2c0-0.2,0.1-0.5,0.2-0.6c0.8-1.6,2.4-4.7,3.4-6.9l1.9-4.3c0.5-1.1,1.1-2.4,1.1-2.5
                  		l0.9-2.2l-1,1.3l-0.5,0.6c-0.1,0.1-8.6,11.5-11.7,13.4c-2.7,1.7-2.9,1.3-3.1,1.1l-0.1-0.1V70c0-0.2,0.2-0.8,1.1-2.3
                  		c1.6-2.5,3.3-6.3,5-10c0.9-1.9,1.7-3.9,2.6-5.5c2.7-5.5,4.6-7.2,5.5-7.7l0.5-0.3L45.1,44h-0.3h-0.2c-0.2,0-1.5,0.4-4.2,0
                  		c-1.4-0.2-2.9-0.5-4.5-1c-2.2-0.6-4.7-1.6-7.4-2c-5.8-0.7-12.5,1.1-17.6,4.8C7,48.6,4.7,52,4.5,55.1c-0.1,1.8,0.5,3.3,1.6,4.4
                  		c4.8,4.5,14.8,2.1,21.1-2.4c3.1-2.2,4.5-4.5,5-5.4l0.1-0.1c0,0,0.6,0.2,0.2,0.8c-0.2,0.7-2.3,3.7-5.3,5.9
                  		c-6.3,4.6-16.7,6.5-21.5,2.1c-1.6-1.5-2.3-3.6-2.1-5.6c0.2-3.3,2.8-7.1,6.8-9.9c5.3-3.8,12.1-5.8,18.2-5.3c2.8,0.2,4.3,1,5.9,1.8
                  		c1.4,0.7,2.9,1.4,5.4,1.8c5.3,0.8,8.7-0.6,9.3-0.9c0.5-0.2,0.7-0.2,0.8-0.1c-0.1,0.1-0.3,0.3-0.4,0.3l-0.3,0.2L49,42.9
                  		c-1,0.8-4.2,3.4-5,4.6c-1.9,2.8-2.8,5.2-4.5,9.5L39,57.9c-0.8,2.1-3.2,6.6-3.4,7l-0.1,0.4c0,0.1,0,0.2,0.1,0.3
                  		c0.3,0.2,0.7-0.1,1.1-0.4c0.2-0.2,1.3-1.6,3.2-4.1c2.4-3.1,5.4-7,6.9-8.7c2.6-2.9,4.4-4.3,4.7-4.5l0,0c0.4-0.3,0.5-0.2,0.6-0.1
                  		c0.1,0.1,0.1,0.2-0.2,0.8c-0.2,0.5-1,2.3-2,4.8l-0.9,2c-1.5,3.5-2.6,5.7-3.9,7.9c-0.4,0.8-0.8,1.7-1,2.3l-0.2,0.5
                  		c-0.2,0.4,0,0.6,0.1,0.6C44.2,66.7,44.4,66.3,44.6,66.2"/>
                  	<path fill="#1d548c" d="M65.3,58.7c-3,0.9-6.3,2.2-7.1,6.8c-0.2,1.3,0,2.3,0.5,3.1c0.5,0.7,1.4,1.1,2.5,1.2
                  		c2.2,0.2,5.3-2.6,5.4-2.7l0,0V67l0,0c0.4-0.8,2.2-4.9,2.5-5.8c0.2-0.5,0.1-1.3-0.4-1.9C68.4,58.8,67.4,58.1,65.3,58.7 M86.7,67
                  		L86.7,67L86.7,67L86.7,67c0.2-0.2,5.4-12.5,6.4-14.7c2.2-4.6,6.4-10.1,11.6-11.5c4.7-1.2,7.8-0.6,9.4,1.9c1.9,3-1.7,6.8-2.1,7.2
                  		c-2.4,2.5-6,4.2-9.3,4.4c-1.8,0.1-1.8-0.2-1.8-0.3s0-0.1,0-0.2c0.2-0.2,0.8-0.4,1.9-0.4c3-0.1,7.2-2.1,8.8-4
                  		c2.3-2.9,2.2-4.6,1.5-6.2c-0.2-0.6-1.3-1.6-3.3-1.9c-2.1-0.4-6.3-0.2-11,4.9c-1.7,1.9-7.3,14.5-9.2,18.7L89.1,66
                  		c-0.5,1-0.5,2.1-0.1,2.8c0.3,0.4,0.7,0.7,1.2,0.7c2.8,0.2,4.7-1.3,5.3-1.8l0,0c0.4-0.3,0.8-0.3,0.8-0.3h0.1h0.2l0.4,0.2L96.9,67
                  		c0,0-0.4-1.7,0.7-3.8c1.2-2.3,4.7-5.4,8.4-5.4c1.4,0,2.4,0.4,2.9,1.3c0.5,1,0.3,2.1,0.1,2.5c-1,1.6-2.5,2.7-5.1,3.6
                  		c-2.2,0.8-3.4,0.8-3.6,0.7h-0.2h-0.2c-0.3,0.3-0.4,1.6-0.1,2.4c0.2,0.7,0.7,1.2,1.3,1.2c1.5,0.1,3.6,0.1,6-1.2
                  		c2.2-1.1,3.3-1.8,3.4-1.9h0.1v-0.1c0.3-0.6,2.8-5.6,3-6.2V60c0.1-0.5,0.3-0.9-0.2-1.3c0,0-0.1-0.1-0.1-0.2c0-0.1,0.2-0.3,0.6-0.4
                  		c1-0.3,2,0.1,2.1,0.2l0.1,0.2c0.2,0.3,0.4,0.6,0.8,0.5l0.6-0.2c0.9-0.4,2.8-1.1,4.1-0.9c0.9,0.1,1.6,0.5,1.9,1.1
                  		c0.3,0.5,0.4,1.2,0.2,1.8c-0.3,0.9-1.1,2.9-1.7,4.4l-0.8,2c-0.2,0.5-0.2,1.2,0.2,1.7c0.2,0.3,0.6,0.6,1.2,0.6
                  		c1.3,0,4.8-1.4,5.8-2.1l1.6-1.1v-0.1c0.4-1,3.7-9.5,5.8-13.6c2.2-4.2,7-11.2,14.7-11.5c2.9-0.1,4.9,0.7,5.7,2.3
                  		c0.9,1.7,0.3,3.8-0.4,4.7c-2,2.7-4.4,4.6-9.5,5.5c-1.3,0.2-2.4,0.2-2.5,0c0-0.1,0-0.1,0-0.1c0.1-0.2,0.7-0.4,1.5-0.5
                  		c0.1,0,7.6-0.8,9.8-5c1.1-2.2,0.7-3.7,0.1-4.5c-0.9-1.3-2.6-1.9-4.7-1.7c-2.6,0.3-9.1,1.8-12.7,10.7l-2.6,6.4l0.8-0.5
                  		c0,0,1.4-0.8,3.5-0.6c1.4,0.1,2.6,0.7,3.4,1.6c0.7,0.8,1,2,0.9,3.1c-0.2,2-4.7,8.2-10.2,8.1c-2.7,0-3.6-2.8-3.6-3l-0.1-0.4
                  		l-0.4,0.2c0,0-4.2,2.8-6.7,2.9c-1.7,0.1-3.1-0.4-3.7-1.2c-0.4-0.6-0.5-1.4-0.2-2.3c0.7-2.2,1.6-4.4,2.1-5.6l0.3-0.8
                  		c0.1-0.2,0.3-0.9-0.1-1.4c-0.3-0.4-0.9-0.5-1.8-0.3c-2.2,0.5-3.4,1-3.8,1.5c-0.3,0.4-1.7,3.6-3.2,7l-0.6,1.4c-0.4,1-0.9,1.5-2,1.4
                  		c-0.2,0-0.3-0.1-0.4-0.2c-0.2-0.3-0.1-1.1,0-1.3l0.3-0.8l-0.7,0.4c0,0-4.2,2.4-8.2,2.3c-2.9,0-3.8-2.6-3.8-2.7l-0.2-0.4l-0.4,0.3
                  		c0,0-3.5,2.8-6.7,2.7c-3.1-0.1-3.3-1.6-3.3-1.7l-0.1-0.5l-0.4,0.3c0,0-3.1,2-6.9,1.9c-2.7-0.1-2.9-2.6-2.9-2.7V67l-0.5,0.3
                  		c0,0-4.1,2.9-6.2,2.9c-2.9,0-3.1-1.5-3.1-1.6l-0.1-0.7l-0.5,0.5c0,0-2,2.3-6.3,2.2c-3.1-0.1-4-3.3-4-3.4l-0.1-0.4L55,66.9
                  		c-2.5,1-6.8,2.6-7.6,2.6s-1.1-0.1-1.1-0.2s0.3-0.3,0.6-0.4c0.1,0,7.1-2.1,7.8-2.7c0.7-0.5,0.9-0.9,1.1-1.5c0.2-0.5,5-7.5,10.5-7.4
                  		c2,0,2.8,0.5,3.2,0.7c0.2,0.1,0.3,0.2,0.5,0.2s0.5-0.1,1.1-0.2c0.7-0.2,1.6-0.4,2-0.4c0.8,0,1.4,0.3,1.6,0.4
                  		c-0.2,0.2-1.1,0.7-1.5,0.7c-0.8,0.1-2,2.5-2.2,2.9c-0.4,0.9-2.1,5.1-2.2,5.6v0.2c0,0.4,0.1,0.7,0.3,1c0.2,0.3,0.5,0.4,0.9,0.4
                  		c2.9,0.1,5.1-2,5.9-2.7c0.9-0.8,0.9-0.9,1.4-2.1v-0.1c0.5-1.3,4.8-11,5.5-12.6c0.8-1.8,4.6-7,8.7-8.7c4.2-1.7,6-1.3,6.2-1.2
                  		c0.1,0.1,0.3,0.4,0.2,0.6c0,0-0.1,0.1-0.2,0.1h-0.1c-1.7,0-4.4-0.1-7.2,1.9c-1.9,1.4-4.9,5.6-5.5,7.1c-0.6,1.3-5.5,13.4-6,14.7
                  		c-0.3,0.9-0.3,1.7,0,2.2c0.3,0.4,0.7,0.7,1.3,0.7c1.3,0.1,3.9-0.6,5-1.2C86.4,67.2,86.6,67,86.7,67 M102.3,60.1
                  		c-2,1.5-2.4,4.2-2.4,4.3v0.3l0.3,0.1c0,0,0.8,0.2,1.3,0.1c0,0,4-0.5,5.3-3.9c0.4-1,0.3-1.8-0.2-2.1
                  		C105.7,58.2,103.5,59.2,102.3,60.1 M134.9,60.5c-0.2,0.4-1.8,4.5-2.2,5.8v-0.1c-0.1,0-0.1,0.3-0.1,0.7c0,0.4,0.1,0.9,0.3,1.3
                  		c0.9,1.6,2.7,1.7,5.5,0.3c2.4-1.2,3.4-3.6,3.8-5.4c0.5-2.3-0.3-3.8-2.2-4.3C138.4,58.4,135.1,59.8,134.9,60.5"/>
                  	<path fill="#1d548c" d="M140.7,69.6c0-0.1,0.2-0.3,0.4-0.4c0,0,4.9-1.9,5.3-2.2l0,0c0.3-0.3,0.6-0.5,0.6-0.6l0.1-0.1v-0.1v-0.1
                  		c0-1,0.5-6,7.5-8.1c1.7-0.5,3.2-0.1,3.9,1.1c0.7,1.1,0.5,2.6-0.4,3.5c-1.4,1.4-4.7,3-6.9,3.1c-0.9,0-1.1-0.1-1.1-0.1l-0.2-0.1
                  		l-0.1-0.1l-0.1,0.4c0,0.1-0.3,1.8,0.5,2.8c0.3,0.4,0.7,0.6,1.3,0.7c2.2,0.2,3.9-0.2,6.2-1.5c2.4-1.4,2.9-1.9,2.9-1.9l0,0v-0.1l0,0
                  		c0.2-0.5,1.8-5,1.9-5.4v-0.1c0.1-0.2,0.1-0.5,0-0.7c-0.1-0.1-0.3-0.2-0.5-0.2s-0.6-0.1-0.7-0.3c0-0.1-0.1-0.1,0-0.2
                  		c0.1-0.3,0.5-0.3,1.2-0.3h0.6c1.2-0.1,1.7,0.1,1.7,0.1v-0.1l0.1,0.2c0.1,0.2,0.4,0.6,1.1,0.4l0.6-0.3c0.6-0.4,1.5-0.9,2.9-0.6
                  		c0.7,0.2,1.2,0.3,1.6,0.5c0.7,0.3,1.3,0.5,2.2,0.1c0.7-0.2,1-0.1,1,0c0,0,0,0.1-0.3,0.2c-0.8,0.5-2.1,1.2-3.9,1.1
                  		c-0.9,0-1.5-0.2-2-0.4c-0.6-0.2-1.2-0.4-1.9-0.2c-0.6,0.3-0.8,0.2-0.9,0.2H165c-0.3,0.1-0.4,0.1-2.7,6.9l-0.9,2.6
                  		c-0.3,0.8-0.6,1-1.3,1c-0.4,0-0.7-0.2-0.9-0.4c-0.1-0.1-0.2-0.3-0.1-0.4c0.2-0.6,0.2-0.9,0-1.1c-0.1-0.1-0.2-0.2-0.4-0.2
                  		c-0.1,0-0.2,0-0.7,0.3c-1.3,0.6-4.3,2.1-6.6,2.1c-2.8,0-4.3-2.9-4.3-2.9l-0.2-0.3l-0.3,0.2c0,0-1.7,1.1-3.5,1.6
                  		C141.3,69.6,140.8,69.7,140.7,69.6 M152.5,59.9c-1.8,1.2-2.6,3.6-2.8,4.6v0.2l0.1,0.1c0.2,0.2,0.8,0.4,3-0.3c1.8-0.6,3.8-2,4.1-3.8
                  		c0.2-1,0-1.6-0.5-1.9C155.4,58.2,153.5,59.3,152.5,59.9"/>
                  	<path fill="#1d548c" d="M170.5,67.5v-0.2l0,0c-0.1-0.3-0.1-0.5-0.1-0.8c0-1,0.4-2.6,2.2-4.6c3.1-3.4,7.9-3.9,8-3.9
                  		c1.2-0.1,2,0.4,2.1,0.5c0.1,0.2,0.3,0.3,0.5,0.3c0.1,0,0.3-0.1,0.5-0.3c0.1-0.1,1.1-0.5,1.4-0.4c0.1,0,0.4,0.2,0.5,0.4
                  		c0.1,0.1,0,0.3,0,0.5l-0.1,0.2c-2,4.6-6.6,15.3-7.6,17.1c-1.5,2.5-5.7,8.3-12.8,8.2c-5-0.1-5.2-2.5-5.2-2.6s0.2-0.4,0.3-0.5
                  		c0.1,0,0.3,0.1,0.6,0.4l0.4,0.4c1,1.1,1.4,1.6,3.8,1.7c5,0.1,8.6-2.6,11.4-8.4l2.3-5.7l-0.2-0.2c-0.2-0.2-0.4-0.1-0.5,0
                  		c-0.4,0.2-1.5,0.8-3.4,0.8c-2.3,0-4-2.3-4-2.3l-0.2-0.3l-0.3,0.2c0,0-1.4,1-3.5,1.4c-1.8,0.4-2.3,0.3-2.5,0.2
                  		c0-0.1,0.2-0.2,0.3-0.3c0.3-0.1,4.8-1.2,5.2-1.6l0.2-0.1C170.1,67.7,170.4,67.5,170.5,67.5c-0.1,0-0.1,0-0.1,0H170.5 M180.3,58.6
                  		c-0.3,0.1-7.4,1.4-7.5,7c-0.1,2.9,1.3,4,2.7,4.1c1.8,0.1,4.1-1.8,4.2-1.9l0,0v-0.1v-0.1c0,0,3.1-6.2,3.1-6.8c0-0.4-0.1-1.2-0.6-1.7
                  		S181.1,58.4,180.3,58.6"/>
                  	<path fill="#1d548c" d="M198.3,58.3c0.1-0.1,0.3-0.2,0.3-0.5c0-0.1,2.5-7.2,11.9-9.9c9.8-2.8,13.3,1.2,14.6,3.8
                  		c0.6,1.3,0.8,3.1,0.1,4.8c-0.8,2-3.8,6.5-10.5,9c-4.8,1.8-9.9,1.8-14.2,0.1c-1.1-0.4-1.3-1-1.3-1.1l0,0c0.1-0.1,0.5-0.1,1.3,0.3
                  		c1.5,0.8,7.4,2.5,13.9-0.2c7.7-3.2,11.1-7.4,9.8-12c-0.5-1.5-1.5-2.7-3.1-3.5c-3.3-1.6-8.3-1.3-11.3-0.2c-4.1,1.5-9,3.9-10.4,8.5
                  		l-0.1,0.2c-0.2,0.5-0.4,1.1,0.3,1.5c0.2,0.1,0.5,0.5,0.5,0.9c0,0.2-0.1,0.4-0.3,0.6c-0.3,0.2-0.6,0.2-0.8,0.1
                  		c-0.3-0.1-0.6-0.5-0.8-1c-0.4-1.3-1.6-1.4-2.7-1.4c-1.1,0-3.6,0.3-3.8,2.3c-0.1,1.5,0.9,2,1.8,2.3l0.8,0.4c1.1,0.7,2.9,2.1,2.4,3.9
                  		c-0.5,1.9-2.9,3.4-5.3,3.4c-2.8-0.1-4.2-1-4.6-1.3c-0.7-0.5-1-0.5-1.5-0.3l-0.2,0.1c-0.4,0.1-1.6,0.5-1.8,0.7c0,0-0.1,0-0.2,0
                  		c-0.1,0-0.1-0.1-0.2-0.2l0,0c0-0.1,0.2-0.3,0.3-0.3l0.9-0.3c0.8-0.3,1.9-0.7,2.2-0.9l0.2-0.1c0.4-0.1,0.6-0.2,1.5,0.5l0.3,0.2
                  		c1.1,0.8,1.5,1.2,3.1,1.2s3.5-0.6,4.2-2.1c0.1-0.3,0.2-0.6,0.1-0.9c-0.3-0.8-1.4-1.3-2.6-1.9c-0.5-0.3-1-0.5-1.4-0.7
                  		c-0.6-0.4-1.3-1.2-1.4-2.3c-0.1-1,0.4-1.9,1.3-2.8c1.9-1.7,4.3-1.3,4.3-1.3c1.1,0.1,1.6,0.2,1.9,0.3
                  		C198.1,58.3,198.2,58.4,198.3,58.3"/>
                  	<path fill="#1d548c" d="M85.6,79.3c2.4-2.9,2.8-3.3,7.5-5.5c2.9-1.1,7-2,9.7,0c1.1,0.8,1.8,2.1,2,2.9c0.1,0.5-0.2,0.9-0.5,1.1
                  		c-0.3,0.1-0.5,0.1-0.7,0c-0.5-0.4-0.5-1.1-0.5-1.6s0-1-0.4-1.3c-2-1.7-4.9-1.8-8.5-0.4c-7.4,2.9-9.4,8.3-12.5,16.5L81,92.8
                  		c-3.3,8.8-10.3,13.9-19.9,13.7c-0.1,0-6-0.3-9.1-3.5c-1.4-1.5-2.1-3.5-2-5.8c0.2-5.9,9-10.1,9.1-10.2c0.1,0,11.4-5,15.2,3
                  		c0.6,1.3,0.6,2.7,0,4.1c-1.6,3.6-6.8,6.3-8.4,6.8c-2.1,0.7-4.9,0.9-6.2,0.4c-0.7-0.2-0.9-0.6-1-0.8c0.3,0,0.9,0,1.5,0.2
                  		c1.4,0.5,6.6,0.1,10.4-3.5c2.9-2.8,3.7-5.7,2.1-8c-1.9-2.8-7.2-4.3-13.4-1.6C54,90,51.6,94.2,51,97.1c-0.3,1.7,0,3.3,1,4.6
                  		c1.5,2.1,4.6,3.8,8.9,4.1c3.4,0.2,13.2-1.4,18.5-14.7C81.8,84.8,83.3,82.1,85.6,79.3"/>
                  	<path fill="#1d548c" d="M107.8,95.9v-0.2l-0.1-0.3c-0.2-0.3-0.6-0.4-1-0.5c-0.2,0-0.4-0.1-0.5-0.2s-0.1-0.2-0.1-0.3
                  		c0-0.2,0.4-0.4,1-0.5l1.7-0.3l0.1-0.2c0-0.1,3.2-7.9,7.4-12.5c3.8-4.2,7.4-5.9,11.9-5.8c4.1,0.1,4.6,0.9,4.8,1.3
                  		c0.2,0.3,0.1,0.4,0,0.5s-0.3,0.3-0.9-0.1c-0.6-0.3-2-0.9-4-1c-1.9-0.1-8.2,1.1-11,5.6c-2.7,4.4-5.6,11.5-5.7,11.8l-0.2,0.4l1.9,0.1
                  		c0.1,0,0.1,0.1,0.1,0.3c0,0,0,0.4-0.5,0.5l-2.1,0.2l-0.1,0.2c0,0.1-4.1,9.8-4.2,9.9s0,0.3,0.1,0.4s0.4,0.3,1,0.1
                  		c0.6-0.2,3.4-1.1,4.9-1.8l2.6-1.2l0.1-0.1c0.9-2.3,2.6-6.6,2.7-6.7l0.1-0.1v-0.2c-0.1-0.2-0.2-0.2-0.4-0.3
                  		c-0.4-0.1-0.6-0.3-0.6-0.6c0.1-0.5,0.4-0.8,1.1-0.8l1.1-0.2v-0.2c0,0,1-3.6,6.4-7.4c0.9-0.6,1.3-0.7,1.4-0.5c0,0.1-0.1,0.4-0.2,0.5
                  		l-0.1,0.1c-2.2,1.6-3.8,3.4-4.5,5.2l0,0c-0.1,0.1-0.2,0.5-0.8,1.8l-0.1,0.4v0.1c0.1,0.3,0.4,0.5,0.9,0.5c0.3,0,0.7,0.1,0.9,0.3
                  		c0.1,0.1,0.1,0.1,0.1,0.2c0,0.5-0.2,0.6-0.8,0.7l-2.1,0.3l-0.1,0.2c-0.6,1.4-2.4,6-2.9,7.3c-0.1,0.3-0.2,0.6-0.2,0.9
                  		c0,0.4,0.1,0.7,0.3,1c0.3,0.4,0.8,0.7,1.5,0.7c1.1,0,3.2-0.6,4.4-1.3l1-0.6c0.3-0.2,0.9-0.5,1-0.5c0.3,0.3,0.5,0.4,0.5,0.4h0.1
                  		c-0.1,0-0.1,0.1-0.1,0.1s-3.3,2.4-6,2.8c-2.4,0.4-3.5-0.1-4.1-0.5c-0.5-0.4-0.6-0.9-0.6-1.2l-0.1-1.6l-0.4,0.2
                  		c-0.3,0.1-2.7,1.4-4.2,2.1c-1.8,0.8-4.1,1.1-4.1,1.1h-0.2l-0.1,0.2c0,0.1-3.5,7.9-3.8,8.5s-0.4,0.7-1.2,1.1l-0.2,0.1
                  		c-0.4,0.2-0.9,0.5-1.1,0.4c0,0-0.1,0-0.1-0.1c-0.2-0.4,0-0.8,0.1-1.2l0.1-0.2l1.5-3.6c1.4-3.5,2.4-5.7,2.4-5.9v-0.1
                  		c0.1-0.3,0.2-0.7,0-0.9c-0.1-0.1-0.3-0.2-0.6,0l-0.1,0.1c-3.1,1.6-5.5,2.3-6.8,1.8c-2.1-0.7-1.9-2.6-1.9-2.7l0.1-0.6l-0.5,0.3
                  		c0,0-4.6,2.9-7.9,2.9c-2.1,0-2.7-2.2-2.7-2.2l0,0c0-0.1,0-0.3-0.2-0.4c-0.1-0.1-0.2-0.1-0.5,0s-3.8,1.5-5.4,1.7
                  		c-1.6,0.3-2,0.2-2.3,0.1c-0.1,0-0.2-0.1-0.3-0.1c0.1,0,0.2-0.1,0.5-0.1c0.9-0.1,4.1-0.7,6-1.6c0.9-0.4,2-1,2.1-1.2l0,0l0,0l2.8-6.5
                  		c0.1-0.1,0.1-0.3,0.1-0.4s0-0.2-0.1-0.3c0-0.5-0.3-0.5-0.5-0.5h-0.2c-0.6,0-0.9-0.1-1-0.5c0-0.1,0-0.1,0-0.2
                  		c0.1-0.1,0.5-0.2,0.7-0.2h0.1l1.7-0.3l0.1-0.2c0,0,1.6-3.5,3.8-5.4c2.2-1.9,3.9-2.8,4.4-3c0.2,0,0.7,0.1,0.8,0.3l0,0
                  		c0,0.1-0.1,0.2-0.4,0.3l-0.2,0.1c-1.3,0.7-2.8,1.4-4.2,4.1l-0.5,0.9c-0.9,1.6-1.1,2.1-1.1,2.4v0.2l0,0l0.2,0.2
                  		c0.2,0.1,0.3,0.1,0.7,0.1c1,0.1,1.3,0.2,1.3,0.2c-0.1,0.5-0.5,0.8-1.1,0.8c-1,0-1.6,0.1-1.6,0.1h-0.2l-0.1,0.2
                  		c-0.1,0.2-2.6,5.7-3.1,7.2c-0.1,0.3-0.2,0.6-0.2,0.9s0.1,0.6,0.2,0.9c0.3,0.4,0.9,0.6,1.8,0.6c1.8,0,3.5-1,5-1.9l0.9-0.5
                  		c1.5-0.6,1.5-0.7,1.5-0.9c0,0,0,0-0.1,0c0.1-0.1,0.4-0.7,1.2-2.5l1.5-3.3c0.1-0.2,0.1-0.4,0.1-0.5c0-0.3-0.2-0.6-0.5-0.7
                  		c-0.6-0.2-0.7-0.4-0.7-0.6l0,0c0,0,0.2-0.2,2.1-0.3h0.1c0.9-0.1,2,0.2,2,0.4c0,0.2,0,0.6-0.5,1.4c-0.1,0.2-3.2,6.3-3.5,7.5
                  		c-0.1,0.6,0,1.2,0.4,1.6c0.3,0.4,0.8,0.5,1.2,0.5c0.6-0.1,3.8-1.3,5.3-2.1l0.5-0.3l0.5-0.2l0,0l0.1-0.1l0,0l0,0l0.1-0.1l0,0l0,0
                  		C106,100,107.7,96.1,107.8,95.9 M141.3,99.8L141.3,99.8c0.5-1.4,4.8-11.1,5.5-12.7l0.1-0.1c1.1-2.5,3.8-8.2,9.5-10.6
                  		c4.1-1.7,8.1-0.9,8.5-0.7c0.5,0.4,0.6,0.8,0.5,1s-0.4,0.2-0.7,0c-1.7-0.8-4.7-1-7.9,0.5s-5.6,4.6-7.8,9.7c-0.6,1.3-5.5,13.4-6,14.7
                  		c-0.3,0.9-0.3,1.7,0,2.2c0.3,0.4,0.7,0.7,1.3,0.7c1.3,0.1,3.2-0.7,4.3-1.2c0.2,0,0.6,0.1,1.1,0.7c0.6,0.8,1.5,1.5,3.4,1.6
                  		c1.8,0,3.8-0.9,4.1-2.3c0.2-1.4-0.8-2-2.4-3.1l-0.3-0.2c-1.7-1.1-2.1-2.4-1.5-4.1c0.7-1.9,4.3-2.2,5.3-2.1c1.1,0,3.7,0.3,3.7,1.7
                  		c0,0.5-0.1,0.9-0.3,1.1s-0.5,0.2-0.7,0.2s-1-0.2-1-0.8c0-0.2,0-0.3,0.1-0.5c0.2-0.5,0.2-0.9-0.8-1.3c-0.9-0.3-3.2-0.1-4.3,0.8
                  		c-0.5,0.4-0.8,1-0.6,1.6c0.2,1.2,1.5,2,2.5,2.8c0.7,0.5,1.5,1,1.7,1.5c0.5,1.2,0.1,2.8-0.4,3.2c-0.1,0.1-0.2,0.3-0.1,0.5
                  		c0.1,0.2,0.4,0.4,2-0.2c1.7-0.6,2.5-0.9,2.8-1.1c0,0,0.2,0.1,0.2,0.2l0,0c0,0.1-0.1,0.1-0.1,0.1c-0.6,0.5-3.9,1.8-4.7,1.8
                  		c-0.7,0-0.9-0.3-0.9-0.3l-0.2-0.3l-0.3,0.3c0,0-1.1,1.2-3.9,1.2c-2.9-0.1-5-1.4-5.1-1.4l-0.1-0.1l-0.2,0.1c-0.1,0-2.9,1.2-4.3,1.1
                  		c-2.7,0-2.8-2.4-2.8-2.5V103l-0.5,0.3c0,0-4.7,2.6-6.8,2.9c-3.4,0.4-5.7-0.5-6.7-2.7c0,0,0-0.1-0.1-0.2l0.2,0.1l-0.2-0.7
                  		c0,0-0.6-2.6,4.3-6.9c1.6-1.4,3.6-2.1,5.2-1.9c0.9,0.1,1.7,0.6,2.1,1.2c0.9,1.5-0.2,3.1-1.5,4.2c-1.3,1-4.5,2.4-5.2,2.5
                  		c-0.4,0.1-0.6,0-0.6-0.1c-0.1,0-0.1-0.1-0.1-0.2s0-0.1,0.1-0.2c0.2-0.2,0.5-0.3,0.7-0.3c0.5,0,4.5-1.5,4.9-4.1c0.2-1,0-1.7-0.5-2
                  		c-0.7-0.6-1.9-0.1-2.3,0.1c-1.5,0.7-4.1,2.8-4.4,6.5c-0.3,3.5,2.2,3.8,2.2,3.8h0.3c3.2,0.1,6.9-2,8.5-3.4
                  		C140.8,101.2,140.8,101,141.3,99.8"/>
                  	<path fill="#1d548c" d="M174.7,95.2c0.5,0.8,0.2,2.6-1.1,3.8c-1.9,1.8-4.6,2.8-5.4,2.9c-0.4,0-0.6,0-0.8-0.2
                  		c-0.1-0.1-0.1-0.2-0.1-0.2s0-0.4,0.4-0.4c0.6,0,3.2-0.7,4.2-2c1.2-1.6,1.4-3.3,0.9-3.9c-0.5-0.7-1.3-0.8-2.1-0.3
                  		c-0.5,0.3-4.6,2.7-4.7,6.6c-0.1,2.4,2,3.6,2.6,3.7c1.1,0.2,2.8,0.2,6.3-1.8c2.9-1.6,4.5-3.1,6-4.5l0.7-0.6c0.7-0.6,1-0.8,1.1-0.9
                  		l0.1-0.1l0,0h0.1c0,0.1,0,0.2-0.1,0.3c-0.2,0.3-3.5,3.9-6.1,5.5c-2.3,1.5-5.2,3-8.3,2.9c-2.4,0-3.5-0.6-4.3-2.4
                  		c-1.6-3.7,4.1-8.1,6.9-9.6C172.7,93.3,174.2,94.3,174.7,95.2"/>
                  	<path fill="#1d548c" d="M102.4,86.7c-0.7,0.3-1.3,0.7-1.5,1.1c-0.1,0.1-0.1,0.2-0.1,0.3c0,0.1,0,0.2,0,0.2c0.2,0.6,1.3,0.5,2.2,0.2
                  		c0.7-0.3,1.3-0.7,1.5-1.1l0.1-0.3v-0.2C104.3,86.3,103.3,86.4,102.4,86.7"/>
                  </g>
                  </svg>