<svg xmlns="http://www.w3.org/2000/svg" xml:space="preserve" width="191" height="67"><g fill="#75112E"><path d="m51.071 2.187-1.078 2.125-.185-.106c.004-.044.006-.079.006-.106 0-.149-.128-.311-.383-.482-.785-.546-1.706-.82-2.764-.82-.467 0-.879.057-1.236.172-.26.088-.47.22-.631.396a.836.836 0 0 0-.241.575c0 .339.205.57.615.693.211.062.666.127 1.362.198l1.038.105c.617.066 1.116.156 1.498.271.381.114.72.275 1.015.482.3.216.537.5.711.853.174.352.261.729.261 1.129a2.57 2.57 0 0 1-.615 1.691c-.371.449-.946.782-1.726.998a6.913 6.913 0 0 1-1.871.245c-1.194 0-2.374-.287-3.537-.859-.247-.115-.395-.172-.443-.172-.057 0-.147.048-.271.146l-.191-.099.978-2.215.192.092v.086c0 .198.095.381.284.549.287.255.73.476 1.329.661s1.168.278 1.706.278c.586 0 1.087-.099 1.501-.297.229-.109.412-.256.549-.438a.943.943 0 0 0 .205-.571c0-.299-.161-.513-.483-.64-.225-.088-.679-.169-1.362-.244l-1.018-.106c-.684-.07-1.166-.137-1.448-.202a3.694 3.694 0 0 1-.846-.307 2.202 2.202 0 0 1-.945-.894 2.4 2.4 0 0 1-.311-1.23c0-.763.262-1.395.787-1.893.688-.657 1.719-.986 3.094-.986.578 0 1.115.059 1.613.176.498.117 1.12.333 1.864.647.255.102.412.153.469.153.093 0 .201-.051.324-.153l.184.099zM58.772 2.91v6.843c0 .137.031.241.093.311s.172.128.331.172v.211H56.38v-.211c.159-.044.269-.102.331-.172s.092-.174.092-.311V2.91H54c-.132 0-.233.03-.304.091-.071.061-.128.171-.172.333h-.211V1h.211c.049.161.107.271.175.332.069.061.169.091.301.091h7.57c.137 0 .24-.03.311-.091.069-.061.127-.172.171-.332h.211v2.334h-.211c-.044-.161-.102-.272-.172-.333-.07-.061-.174-.091-.311-.091h-2.797zM64.939 9.753V2.11c0-.132-.031-.234-.093-.304s-.172-.128-.331-.172v-.211h2.816v.211c-.159.04-.269.096-.331.168a.473.473 0 0 0-.09.308v7.643c0 .137.032.242.096.314.064.073.173.129.327.168v.211h-2.816v-.211c.159-.044.269-.102.331-.172s.091-.173.091-.31zM72.7 6.5v3.252c0 .137.032.242.096.314.063.073.172.129.327.168v.211h-2.816v-.211c.159-.044.269-.102.331-.172.062-.07.092-.174.092-.311V2.117c0-.136-.031-.24-.092-.311-.062-.07-.172-.128-.331-.172v-.211h7.986c.132 0 .234-.03.304-.091s.129-.172.173-.332h.211v2.334h-.211c-.044-.161-.102-.272-.172-.333s-.172-.091-.305-.091H72.7v2.155h3.656c.136 0 .24-.031.311-.094s.128-.172.172-.329h.212v2.281h-.212c-.044-.157-.102-.266-.172-.329s-.174-.094-.311-.094H72.7zM86.252 2.91v6.843c0 .137.031.241.093.311s.172.128.331.172v.211h-2.817v-.211c.159-.044.269-.102.331-.172.062-.07.093-.174.093-.311V2.91H81.48c-.132 0-.234.03-.304.091s-.128.171-.172.333h-.211V1h.211c.049.161.107.271.175.332s.168.091.301.091h7.57c.136 0 .24-.03.311-.091s.127-.172.171-.332h.211v2.334h-.211c-.044-.161-.102-.272-.172-.333s-.174-.091-.311-.091h-2.797zM94.39 6.487V8.96h5.805c.132 0 .234-.031.304-.093.07-.062.128-.172.172-.331h.211v2.334h-.211c-.043-.159-.102-.269-.172-.331-.07-.062-.172-.093-.304-.093h-8.198v-.211c.159-.044.269-.102.331-.172.062-.07.092-.174.092-.311V2.117c0-.136-.031-.24-.092-.311-.062-.07-.172-.128-.331-.172v-.211h8.04c.132 0 .234-.031.304-.095.07-.063.128-.172.172-.329h.211v2.334h-.211c-.043-.157-.102-.267-.172-.329-.07-.063-.172-.094-.304-.094H94.39v2.142h3.663a.453.453 0 0 0 .304-.092c.071-.062.128-.172.172-.331h.211V6.91h-.211c-.044-.154-.102-.264-.172-.327-.07-.064-.172-.096-.304-.096H94.39zM106.032 8.96h5.546c.138 0 .242-.031.312-.093s.129-.172.172-.331h.212v2.334h-.212c-.043-.159-.102-.269-.172-.331-.069-.062-.174-.093-.312-.093h-7.939v-.211c.159-.044.269-.102.331-.172.062-.07.092-.174.092-.311V2.117c0-.136-.03-.24-.092-.311-.063-.07-.172-.128-.331-.172v-.211h2.816v.211c-.158.04-.268.096-.33.168s-.093.178-.093.314V8.96zM123.214 2.187l-1.079 2.125-.185-.106c.003-.044.007-.079.007-.106 0-.149-.128-.311-.383-.482-.786-.546-1.706-.82-2.764-.82-.469 0-.881.057-1.237.172-.261.088-.471.22-.631.396a.838.838 0 0 0-.242.575c0 .339.206.57.616.693.211.062.665.127 1.361.198l1.037.105c.618.066 1.116.156 1.498.271.382.114.72.275 1.015.482.3.216.536.5.71.853.176.352.263.729.263 1.129 0 .634-.206 1.198-.615 1.691-.371.449-.945.782-1.726.998a6.913 6.913 0 0 1-1.871.245c-1.194 0-2.373-.287-3.537-.859-.247-.115-.395-.172-.443-.172-.057 0-.147.048-.271.146l-.192-.099.979-2.215.192.092v.086c0 .198.095.381.283.549.287.255.729.476 1.33.661a5.788 5.788 0 0 0 1.706.278c.586 0 1.086-.099 1.5-.297.229-.109.411-.256.55-.438a.942.942 0 0 0 .204-.571c0-.299-.161-.513-.482-.64-.225-.088-.68-.169-1.361-.244l-1.019-.106c-.684-.07-1.167-.137-1.449-.202a3.711 3.711 0 0 1-.846-.307 2.2 2.2 0 0 1-.944-.894 2.401 2.401 0 0 1-.313-1.23c0-.763.263-1.395.788-1.893.688-.657 1.719-.986 3.095-.986.576 0 1.114.059 1.612.176.497.117 1.119.333 1.865.647.255.102.411.153.468.153.093 0 .2-.051.325-.153l.186.099zM128.316 6.487V8.96h5.806c.132 0 .233-.031.304-.093s.128-.172.172-.331h.212v2.334h-.212c-.044-.159-.102-.269-.172-.331-.07-.062-.172-.093-.304-.093h-8.199v-.211c.159-.044.269-.102.331-.172s.093-.174.093-.311V2.117c0-.136-.03-.24-.093-.311s-.172-.128-.331-.172v-.211h8.04c.132 0 .234-.031.304-.095.07-.063.129-.172.172-.329h.212v2.334h-.212c-.043-.157-.102-.267-.172-.329-.069-.063-.172-.094-.304-.094h-5.646v2.142h3.663c.132 0 .234-.031.304-.092.07-.062.129-.172.172-.331h.212V6.91h-.212c-.043-.154-.102-.264-.172-.327-.069-.064-.172-.096-.304-.096h-3.664zM139.792 4.266v5.487c0 .137.032.241.093.311.063.07.172.128.331.172v.211h-2.65v-.211c.158-.044.268-.102.33-.172s.093-.174.093-.311V2.11c0-.132-.03-.234-.093-.304s-.172-.128-.33-.172v-.211h3.067v.211c-.188.048-.285.149-.285.304 0 .105.063.222.186.35l4.979 5.177V2.11c0-.132-.03-.234-.093-.304s-.172-.128-.331-.172v-.211h2.65v.211c-.158.044-.269.102-.33.172a.45.45 0 0 0-.093.304v7.643c0 .137.032.241.093.311.062.07.172.128.33.172v.211h-2.843v-.211c.186-.04.277-.135.277-.284 0-.088-.107-.243-.322-.463l-5.059-5.223zM6.557 28.824l-3.329-6.235v5.541c0 .136.031.24.093.311.062.07.172.128.331.172v.212H1v-.212c.159-.044.269-.102.331-.172s.093-.174.093-.311v-7.643c0-.132-.031-.234-.093-.304s-.172-.129-.331-.173v-.211h3.479v.211c-.207.053-.311.174-.311.364 0 .088.031.189.092.304l2.462 4.666 2.495-4.586c.11-.203.165-.35.165-.443 0-.181-.11-.282-.331-.304V19.8h3.413v.211c-.159.044-.269.102-.331.172s-.093.172-.093.304v7.643c0 .136.031.24.093.311s.172.128.331.172v.212H9.648v-.212c.154-.04.263-.096.327-.168s.096-.178.096-.314V22.59l-3.514 6.234zM22.049 26.523h-4.102l-.607 1.269c-.083.176-.125.315-.125.417 0 .194.147.329.442.403v.212h-2.985v-.212a.797.797 0 0 0 .403-.185c.092-.088.198-.26.317-.516l3.319-6.936c.105-.22.159-.396.159-.529 0-.203-.128-.348-.384-.437v-.211h3.2v.211c-.26.075-.39.205-.39.39a.99.99 0 0 0 .125.437l3.438 6.955c.146.295.273.497.384.605.11.108.258.18.443.215v.212h-3.322v-.212c.292-.048.438-.185.438-.41 0-.093-.044-.229-.132-.41l-.621-1.268zm-.567-1.236-1.463-3.215-1.487 3.215h2.95zM30.2 25.141v2.995c0 .132.032.235.096.308.064.073.173.129.328.168v.212h-2.817v-.212c.159-.044.269-.102.331-.172.062-.07.093-.172.093-.304v-7.643c0-.137-.031-.241-.093-.311s-.172-.128-.331-.172v-.211h5.646c.688 0 1.233.04 1.636.119.403.079.755.218 1.055.417a2.1 2.1 0 0 1 .78.932c.163.379.245.784.245 1.216 0 1.472-.817 2.334-2.453 2.585l1.752 2.492c.309.437.535.718.678.843s.318.195.526.208v.212h-3.261v-.212c.225-.035.336-.115.336-.238 0-.08-.103-.271-.31-.575l-1.828-2.658H30.2zm0-1.488h3.041c.45 0 .767-.013.952-.04s.355-.082.509-.166c.335-.181.502-.506.502-.979 0-.472-.167-.797-.502-.979-.159-.088-.327-.145-.506-.168s-.497-.036-.956-.036H30.2v2.368zM48.685 25.723l1.256 1.881-.172.12c-.123-.115-.225-.172-.304-.172-.08 0-.302.106-.668.318-.758.438-1.396.732-1.914.885-.518.153-1.134.229-1.848.229-1.424 0-2.592-.337-3.504-1.012a4.264 4.264 0 0 1-1.27-1.461 4.58 4.58 0 0 1-.535-2.201c0-1.093.319-2.043.958-2.85.961-1.212 2.413-1.818 4.357-1.818.714 0 1.327.075 1.838.225.512.15 1.15.445 1.917.886.366.207.588.311.668.311.079 0 .181-.057.304-.172l.172.119-1.256 1.884-.179-.119c.009-.07.013-.129.013-.178a.508.508 0 0 0-.165-.359c-.11-.112-.307-.247-.588-.404a4.98 4.98 0 0 0-2.479-.659c-1.031 0-1.854.258-2.466.773-.723.604-1.084 1.392-1.084 2.364 0 .974.361 1.761 1.084 2.365.612.515 1.435.772 2.466.772a4.96 4.96 0 0 0 2.479-.661c.282-.159.478-.294.588-.407a.509.509 0 0 0 .165-.36c0-.048-.004-.105-.013-.172l.18-.127zM61.834 20.493v5.058c0 .957-.176 1.673-.529 2.149-.634.855-1.946 1.283-3.934 1.283-1.437 0-2.537-.231-3.299-.694a2.12 2.12 0 0 1-.925-1.098c-.168-.458-.251-1.005-.251-1.64v-5.058c0-.137-.031-.241-.092-.311-.062-.07-.172-.128-.331-.172v-.211h2.816v.211c-.156.04-.266.096-.329.169a.466.466 0 0 0-.095.314v4.502c0 .52.029.905.086 1.154.057.249.166.457.324.625.423.45 1.146.674 2.168.674 1.027 0 1.752-.225 2.175-.674.154-.167.26-.376.317-.625.057-.249.086-.634.086-1.154v-4.502c0-.137-.031-.241-.093-.311s-.172-.128-.331-.172v-.211h2.658v.211c-.159.044-.269.102-.331.172-.059.07-.09.174-.09.311zM73.449 20.563l-1.078 2.125-.185-.106c.004-.043.006-.079.006-.105 0-.15-.128-.311-.383-.483-.784-.546-1.706-.82-2.764-.82-.467 0-.879.057-1.236.172-.26.088-.47.22-.631.396s-.241.367-.241.574c0 .339.205.57.615.694.211.061.666.127 1.362.198l1.038.106c.617.066 1.117.156 1.498.271.381.114.72.275 1.015.482.3.216.536.5.71.853.174.353.261.729.261 1.129a2.57 2.57 0 0 1-.615 1.691c-.37.449-.945.782-1.726.998a6.913 6.913 0 0 1-1.871.245c-1.194 0-2.374-.287-3.537-.86-.247-.115-.395-.172-.443-.172-.057 0-.148.049-.271.146l-.191-.099.979-2.215.191.093v.086c0 .198.095.381.285.548.287.256.729.476 1.329.662a5.79 5.79 0 0 0 1.706.277c.586 0 1.086-.099 1.5-.297.229-.11.413-.256.549-.439a.937.937 0 0 0 .205-.571c0-.299-.161-.512-.483-.64-.225-.088-.678-.17-1.362-.244l-1.018-.106c-.684-.07-1.166-.138-1.448-.202a3.77 3.77 0 0 1-.847-.308 2.196 2.196 0 0 1-.945-.894 2.407 2.407 0 0 1-.311-1.23c0-.763.262-1.394.787-1.893.688-.657 1.719-.986 3.094-.986.578 0 1.115.059 1.613.176.498.117 1.12.333 1.864.647.255.102.412.153.47.153.092 0 .201-.051.324-.153l.185.101zM85.859 19.64c1.575 0 2.823.425 3.745 1.276.975.89 1.462 2.041 1.462 3.451 0 .864-.233 1.67-.701 2.42-.913 1.463-2.41 2.195-4.492 2.195-1.561 0-2.803-.426-3.725-1.276a4.444 4.444 0 0 1-1.125-1.633 4.688 4.688 0 0 1-.337-1.765c0-.904.231-1.73.695-2.479.886-1.433 2.378-2.162 4.478-2.189zm.007 1.534c-.86 0-1.577.256-2.151.766-.679.604-1.019 1.394-1.019 2.371s.34 1.768 1.019 2.371c.574.511 1.295.766 2.165.766s1.588-.255 2.158-.766c.339-.304.6-.676.781-1.116.159-.392.238-.797.238-1.215 0-1.021-.339-1.826-1.019-2.411-.58-.502-1.303-.757-2.172-.766zM102.583 25.723l1.256 1.881-.172.12c-.123-.115-.225-.172-.304-.172-.08 0-.303.106-.669.318-.757.438-1.396.732-1.914.885-.518.153-1.133.229-1.848.229-1.424 0-2.591-.337-3.504-1.012a4.264 4.264 0 0 1-1.27-1.461 4.58 4.58 0 0 1-.535-2.201c0-1.093.319-2.043.958-2.85.961-1.212 2.413-1.818 4.357-1.818.713 0 1.328.075 1.837.225.512.15 1.15.445 1.917.886.366.207.589.311.669.311.079 0 .181-.057.304-.172l.172.119-1.256 1.884-.18-.119c.01-.07.013-.129.013-.178a.51.51 0 0 0-.164-.359c-.11-.112-.306-.247-.589-.404a4.978 4.978 0 0 0-2.479-.659c-1.031 0-1.854.258-2.466.773-.723.604-1.084 1.392-1.084 2.364 0 .974.361 1.761 1.084 2.365.613.515 1.435.772 2.466.772a4.96 4.96 0 0 0 2.479-.661c.283-.159.479-.294.589-.407a.511.511 0 0 0 .164-.36c0-.048-.003-.105-.013-.172l.182-.127zM114.013 24.883h-5.205v3.252c0 .132.032.235.097.308s.172.129.327.168v.212h-2.816v-.212c.158-.044.268-.102.33-.172s.093-.172.093-.304v-7.649c0-.132-.03-.234-.093-.304s-.172-.128-.33-.172v-.211h2.816v.211c-.159.04-.269.096-.331.169s-.093.175-.093.307v2.909h5.205v-2.909a.465.465 0 0 0-.093-.307c-.063-.073-.172-.129-.331-.169v-.211h2.816v.211c-.158.044-.27.102-.33.172-.063.07-.093.172-.093.304v7.649c0 .132.03.234.093.304.061.07.172.128.33.172v.212h-2.816v-.212c.153-.04.263-.096.327-.168s.097-.175.097-.308v-3.252zM130.736 26.523h-4.103l-.606 1.269c-.083.176-.127.315-.127.417 0 .194.147.329.442.403v.212h-2.984v-.212a.8.8 0 0 0 .404-.185c.092-.088.198-.26.317-.516l3.318-6.936c.106-.22.159-.396.159-.529 0-.203-.129-.348-.384-.437v-.211h3.2v.211c-.261.075-.392.205-.392.39a.97.97 0 0 0 .127.437l3.438 6.955c.146.295.272.497.384.605a.83.83 0 0 0 .442.215v.212h-3.323v-.212c.293-.048.438-.185.438-.41 0-.093-.043-.229-.132-.41l-.618-1.268zm-.567-1.236-1.464-3.215-1.487 3.215h2.951zM142.051 28.824l-3.33-6.235v5.541c0 .136.032.24.092.311.063.07.172.128.331.172v.212h-2.65v-.212c.159-.044.269-.102.331-.172.062-.07.092-.174.092-.311v-7.643c0-.132-.03-.234-.092-.304-.063-.07-.172-.128-.331-.172V19.8h3.478v.211c-.206.053-.31.174-.31.364 0 .088.03.189.093.304l2.461 4.666 2.495-4.586c.11-.203.165-.35.165-.443 0-.181-.11-.282-.331-.304v-.211h3.414v.211c-.159.044-.269.102-.331.172s-.093.172-.093.304v7.643c0 .136.03.24.093.311s.172.128.331.172v.212h-2.817v-.212c.155-.04.263-.096.327-.168s.097-.178.097-.314v-5.541l-3.515 6.233zM157.542 26.523h-4.101l-.608 1.269c-.083.176-.125.315-.125.417 0 .194.147.329.442.403v.212h-2.986v-.212c.178-.035.312-.097.404-.185s.198-.26.317-.516l3.318-6.936c.106-.22.159-.396.159-.529 0-.203-.129-.348-.384-.437v-.211h3.2v.211c-.261.075-.391.205-.391.39 0 .128.043.273.126.437l3.438 6.955c.146.295.273.497.383.605a.83.83 0 0 0 .442.215v.212h-3.321v-.212c.291-.048.437-.185.437-.41 0-.093-.043-.229-.132-.41l-.618-1.268zm-.566-1.236-1.464-3.215-1.486 3.215h2.95zM165.694 27.336h5.548c.136 0 .24-.031.31-.093s.129-.172.172-.331h.212v2.334h-.212c-.043-.159-.102-.269-.172-.331-.069-.062-.174-.092-.31-.092H163.3v-.212c.159-.044.269-.102.331-.172s.092-.174.092-.311v-7.636c0-.137-.029-.241-.092-.311s-.172-.128-.331-.172v-.211h2.816v.211c-.158.04-.268.096-.33.169s-.093.177-.093.314v6.844zM174.657 28.129v-7.643c0-.132-.03-.234-.092-.304-.061-.07-.172-.128-.331-.172v-.211h2.816v.211c-.158.04-.268.096-.33.169a.465.465 0 0 0-.093.307v7.643c0 .136.032.241.097.314.063.073.174.129.326.168v.212h-2.816v-.212c.159-.044.271-.102.331-.172.061-.069.092-.173.092-.31zM186.635 26.523h-4.101l-.608 1.269c-.083.176-.125.315-.125.417 0 .194.147.329.442.403v.212h-2.985v-.212a.79.79 0 0 0 .402-.185c.093-.088.199-.26.317-.516l3.319-6.936c.105-.22.159-.396.159-.529 0-.203-.129-.348-.384-.437v-.211h3.2v.211c-.261.075-.39.205-.39.39a.99.99 0 0 0 .125.437l3.438 6.955c.146.295.274.497.384.605.109.108.259.18.444.215v.212h-3.323v-.212c.291-.048.438-.185.438-.41 0-.093-.046-.229-.133-.41l-.619-1.268zm-.566-1.236-1.464-3.215-1.487 3.215h2.951zM36.11 40.84l-2.063 5.216c-.119.265-.179.433-.179.502 0 .204.164.348.49.431v.211h-2.906v-.212c.295-.057.443-.207.443-.449 0-.066-.062-.263-.186-.59l-2.587-6.656c-.128-.331-.244-.556-.347-.671a.796.796 0 0 0-.453-.236v-.211h3.137v.211c-.278.063-.417.193-.417.392 0 .102.036.247.106.437l1.785 4.775 1.933-4.802c.083-.208.125-.345.125-.41 0-.202-.148-.333-.443-.392v-.211h3.28v.211c-.3.08-.45.224-.45.431 0 .07.037.202.112.397l1.842 4.775 1.779-4.696c.093-.234.139-.408.139-.523 0-.192-.159-.321-.476-.384v-.211h3.104v.211c-.221.063-.373.142-.457.238-.083.099-.194.321-.331.669l-2.587 6.656c-.124.317-.186.529-.186.635 0 .218.157.352.47.404v.212h-2.945v-.212c.309-.049.463-.196.463-.443 0-.083-.068-.281-.205-.596l-1.99-5.109zM51.585 44.899h-4.102l-.607 1.27c-.084.176-.126.315-.126.415 0 .195.147.329.442.404v.212h-2.985v-.212c.176-.035.311-.096.403-.185s.198-.261.317-.516l3.319-6.937c.106-.22.159-.396.159-.529 0-.202-.128-.348-.383-.437v-.211h3.2v.211c-.26.076-.39.206-.39.392a.99.99 0 0 0 .125.437l3.438 6.955c.146.295.273.497.383.604s.258.18.443.215v.213H51.9v-.212c.292-.049.438-.185.438-.409 0-.093-.044-.229-.132-.41l-.621-1.27zm-.566-1.237-1.464-3.213-1.487 3.213h2.951zM59.736 45.712h5.547c.136 0 .24-.03.311-.093.07-.061.128-.172.172-.331h.212v2.335h-.212c-.044-.158-.102-.268-.172-.33s-.174-.093-.31-.093h-7.94v-.212c.159-.043.269-.102.331-.172.062-.069.092-.174.092-.312V38.87c0-.137-.03-.24-.092-.313-.062-.069-.172-.126-.331-.172v-.211h2.816v.211c-.159.04-.269.097-.331.17-.062.072-.093.178-.093.314v6.843zM70.671 45.712h5.547c.136 0 .24-.03.311-.093.07-.061.128-.172.172-.331h.211v2.335h-.211c-.044-.158-.102-.268-.172-.33s-.175-.093-.311-.093h-7.94v-.212c.159-.043.269-.102.331-.172.062-.069.092-.174.092-.312V38.87a.473.473 0 0 0-.092-.313c-.062-.069-.172-.126-.331-.172v-.211h2.816v.211c-.159.04-.269.097-.331.17-.062.072-.093.178-.093.314v6.843zM81.605 43.239v2.473h5.805c.132 0 .233-.03.304-.093.07-.061.128-.172.172-.331h.212v2.335h-.212c-.044-.158-.102-.268-.172-.33s-.172-.093-.304-.093h-8.199v-.212c.159-.043.269-.102.331-.172.062-.069.092-.174.092-.312V38.87a.473.473 0 0 0-.092-.313c-.062-.069-.172-.126-.331-.172v-.211h8.04c.132 0 .233-.03.304-.095.07-.063.128-.172.172-.329h.212v2.335h-.212c-.044-.156-.102-.266-.172-.328-.07-.064-.172-.095-.304-.095h-5.646v2.143h3.663c.132 0 .234-.03.304-.093s.128-.172.172-.331h.212v2.28h-.212c-.044-.153-.102-.263-.172-.327a.441.441 0 0 0-.304-.096h-3.663zM93.081 41.018v5.487c0 .138.031.242.093.312s.172.129.331.172v.211h-2.651v-.212c.159-.043.269-.102.331-.172.062-.069.093-.174.093-.312v-7.643a.452.452 0 0 0-.093-.305c-.062-.069-.172-.126-.331-.172v-.211h3.068v.211c-.189.05-.284.151-.284.305 0 .105.062.223.185.352l4.979 5.176v-5.355a.452.452 0 0 0-.093-.305c-.062-.069-.172-.126-.331-.172v-.211h2.651v.211c-.159.046-.269.103-.331.172a.456.456 0 0 0-.093.305v7.643c0 .138.032.242.093.312.062.07.172.129.331.172v.211h-2.843v-.212c.186-.039.278-.134.278-.285 0-.087-.108-.241-.324-.463l-5.059-5.222zM112.048 42.472c1.015.384 1.521 1.094 1.521 2.129 0 .826-.295 1.472-.886 1.938a2.855 2.855 0 0 1-1.041.506c-.395.103-.882.155-1.464.155h-6.17v-.212c.159-.043.269-.102.331-.172.063-.069.093-.174.093-.312V38.87c0-.137-.03-.24-.093-.313-.063-.069-.172-.126-.331-.172v-.211h6.109c.586 0 1.058.045 1.415.132.356.089.67.238.938.45.533.419.801 1.023.801 1.812.001.882-.407 1.517-1.223 1.904zm-5.646-.706h3.459c.523 0 .89-.077 1.098-.232.232-.176.35-.449.35-.82 0-.377-.11-.647-.331-.808-.221-.163-.593-.242-1.116-.242h-3.459v2.102zm0 3.946h3.346c.621 0 1.069-.085 1.343-.257.312-.198.469-.523.469-.974 0-.443-.157-.769-.469-.971-.271-.172-.718-.259-1.343-.259h-3.346v2.461zM118.671 43.239v2.473h5.805c.132 0 .234-.03.304-.093.072-.061.129-.172.172-.331h.212v2.335h-.212c-.043-.158-.1-.268-.172-.33-.069-.063-.172-.093-.304-.093h-8.198v-.212c.158-.043.27-.102.33-.172.063-.069.093-.174.093-.312V38.87c0-.137-.03-.24-.093-.313-.061-.069-.172-.126-.33-.172v-.211h8.039c.133 0 .234-.03.305-.095.071-.063.128-.172.172-.329h.211v2.335h-.211c-.044-.156-.101-.266-.172-.328-.07-.064-.172-.095-.305-.095h-5.646v2.143h3.662c.133 0 .234-.03.305-.093.071-.063.128-.172.172-.331h.211v2.28h-.211c-.044-.153-.101-.263-.172-.327a.442.442 0 0 0-.305-.096h-3.662zM130.313 43.517v2.996a.45.45 0 0 0 .097.308c.063.072.174.129.326.168v.211h-2.816v-.212c.159-.043.271-.102.331-.172.062-.069.092-.172.092-.304V38.87c0-.137-.03-.24-.092-.313-.061-.069-.172-.126-.331-.172v-.211h5.646c.688 0 1.233.039 1.638.119.402.079.754.219 1.054.417a2.1 2.1 0 0 1 .78.932c.162.38.244.785.244 1.216 0 1.474-.816 2.335-2.452 2.587l1.751 2.491c.31.437.534.718.678.845a.866.866 0 0 0 .525.207v.212h-3.26v-.212c.225-.035.336-.115.336-.237 0-.08-.103-.272-.31-.576l-1.827-2.658h-2.41zm0-1.487h3.041c.45 0 .768-.014.952-.04.186-.026.355-.081.51-.166.335-.18.503-.507.503-.979 0-.471-.168-.797-.503-.979a1.433 1.433 0 0 0-.506-.168 8.41 8.41 0 0 0-.956-.036h-3.041v2.368zM148.077 43.953h-2.227c-.138 0-.24.032-.308.093-.068.062-.125.172-.169.33h-.211v-2.103h.211c.044.165.101.276.169.335.067.061.17.089.306.089h4.278v.211c-.156.046-.267.103-.328.172-.063.072-.095.176-.095.312v1.852c0 .136.03.24.091.31.063.072.172.129.332.172v.167c-1.713.978-3.374 1.467-4.981 1.467-1.458 0-2.648-.346-3.568-1.038-1.157-.873-1.737-2.084-1.737-3.637 0-1.445.516-2.596 1.547-3.451.979-.811 2.278-1.217 3.9-1.217.516 0 1.002.048 1.459.144.455.095.975.253 1.557.479.3.119.514.179.642.179.093 0 .2-.051.323-.152l.186.1-1.063 2.161-.19-.098c-.004-.144-.024-.25-.061-.313a.825.825 0 0 0-.238-.233c-.268-.202-.661-.374-1.182-.517a5.526 5.526 0 0 0-1.474-.215c-.942 0-1.725.265-2.347.793-.698.6-1.05 1.389-1.05 2.371 0 .952.342 1.719 1.025 2.305.625.538 1.449.807 2.473.807.497 0 .988-.057 1.474-.172s.903-.272 1.256-.471v-1.232zM161.417 38.939l-1.077 2.125-.185-.105c.003-.044.005-.079.005-.105 0-.149-.126-.313-.383-.484-.784-.546-1.706-.819-2.764-.819-.467 0-.879.059-1.235.172a1.483 1.483 0 0 0-.631.396.828.828 0 0 0-.242.574c0 .34.204.57.614.693.211.063.666.129 1.361.198l1.039.106c.618.065 1.116.156 1.498.271.38.113.72.274 1.015.481.3.216.536.501.71.853.174.353.261.729.261 1.129 0 .635-.204 1.198-.614 1.691-.37.449-.946.781-1.727.997a6.861 6.861 0 0 1-1.87.245c-1.193 0-2.374-.287-3.538-.859-.245-.115-.393-.172-.441-.172-.057 0-.147.05-.272.146l-.19-.1.979-2.214.19.092v.086c0 .198.097.381.285.549.287.256.729.477 1.328.661.601.186 1.17.278 1.706.278.587 0 1.088-.101 1.502-.297.229-.109.411-.257.548-.44a.926.926 0 0 0 .205-.57c0-.298-.16-.512-.483-.64-.225-.087-.678-.169-1.361-.244l-1.019-.105c-.682-.07-1.165-.139-1.447-.202a3.76 3.76 0 0 1-.846-.307c-.4-.2-.716-.496-.946-.894a2.421 2.421 0 0 1-.311-1.231c0-.763.263-1.394.786-1.893.688-.657 1.719-.986 3.095-.986.577 0 1.116.059 1.612.178.499.117 1.121.333 1.865.646.257.102.413.152.47.152.093 0 .2-.051.323-.152l.185.1zM42.724 65.576l-3.329-6.235v5.54c0 .139.031.242.092.313.062.069.172.128.331.172v.211h-2.651v-.211c.159-.044.269-.103.331-.172.062-.07.092-.174.092-.313v-7.643a.454.454 0 0 0-.092-.304c-.062-.07-.172-.127-.331-.172v-.212h3.479v.212c-.208.053-.311.175-.311.364 0 .089.031.188.093.304l2.462 4.666 2.495-4.586c.11-.202.166-.352.166-.444 0-.18-.11-.281-.331-.304v-.212h3.413v.212c-.159.045-.269.102-.331.172-.062.071-.092.172-.092.304v7.643c0 .139.031.242.092.313.062.069.172.128.331.172v.211h-2.817v-.211c.155-.04.264-.097.328-.169a.467.467 0 0 0 .096-.315v-5.54l-3.516 6.234zM52.028 64.881v-7.643a.454.454 0 0 0-.092-.304c-.062-.07-.172-.127-.331-.172v-.212h2.816v.212c-.159.039-.269.096-.331.17a.453.453 0 0 0-.093.306v7.643c0 .139.032.242.096.315.063.072.173.129.327.169v.211h-2.816v-.211c.159-.044.269-.103.331-.172.063-.07.093-.173.093-.312zM59.624 59.394v5.487c0 .139.031.242.093.313.062.069.172.128.331.172v.211h-2.651v-.211c.159-.044.269-.103.331-.172.062-.07.093-.174.093-.313v-7.643a.45.45 0 0 0-.093-.304c-.062-.07-.172-.127-.331-.172v-.212h3.068v.212c-.189.049-.284.15-.284.304 0 .105.062.223.185.352l4.979 5.176v-5.355a.45.45 0 0 0-.093-.304c-.062-.07-.172-.127-.331-.172v-.212h2.651v.212c-.159.045-.269.102-.331.172a.448.448 0 0 0-.093.304v7.643c0 .139.031.242.093.313.062.069.172.128.331.172v.211h-2.843v-.211c.186-.04.278-.135.278-.286 0-.087-.108-.241-.324-.462l-5.059-5.225zM72.78 59.394v5.487c0 .139.031.242.092.313.062.069.172.128.331.172v.211h-2.651v-.211c.159-.044.269-.103.331-.172.062-.07.092-.174.092-.313v-7.643a.454.454 0 0 0-.092-.304c-.062-.07-.172-.127-.331-.172v-.212h3.067v.212c-.189.049-.284.15-.284.304 0 .105.062.223.185.352l4.979 5.176v-5.355a.45.45 0 0 0-.093-.304c-.062-.07-.172-.127-.331-.172v-.212h2.651v.212c-.159.045-.269.102-.331.172-.062.071-.092.172-.092.304v7.643c0 .139.03.242.092.313.062.069.172.128.331.172v.211h-2.843v-.211c.185-.04.278-.135.278-.286 0-.087-.108-.241-.324-.462l-5.057-5.225zM86.101 61.615v2.473h5.805c.132 0 .234-.03.304-.093.07-.061.128-.172.172-.33h.211v2.334h-.211c-.044-.158-.102-.268-.172-.33s-.172-.093-.304-.093h-8.198v-.211c.159-.044.269-.103.331-.172.062-.07.093-.174.093-.313v-7.635c0-.136-.031-.24-.093-.312-.062-.07-.172-.127-.331-.172v-.212h8.04c.132 0 .234-.03.304-.095.07-.063.128-.172.172-.328h.211v2.335h-.211c-.044-.157-.102-.267-.172-.329-.07-.064-.172-.095-.304-.095h-5.646v2.143h3.663c.132 0 .234-.03.304-.093s.128-.172.172-.331h.211v2.28h-.211c-.044-.152-.102-.263-.172-.326-.07-.064-.172-.097-.304-.097h-3.664zM103.746 57.315l-1.078 2.125-.185-.105c.003-.043.007-.079.007-.105 0-.149-.128-.312-.383-.483-.786-.546-1.706-.82-2.764-.82-.468 0-.88.059-1.237.172-.26.089-.47.221-.631.396s-.241.369-.241.574c0 .341.205.571.615.693.211.063.666.129 1.362.198l1.038.106c.618.065 1.116.156 1.498.271.381.113.72.274 1.015.482.3.215.536.5.71.852.176.354.263.729.263 1.13 0 .635-.206 1.197-.616 1.69-.37.449-.944.782-1.725.997a6.842 6.842 0 0 1-1.872.246c-1.194 0-2.374-.287-3.538-.859-.247-.115-.394-.172-.443-.172-.057 0-.147.049-.271.145l-.192-.1.979-2.214.192.093v.085c0 .198.095.381.284.55.287.255.73.476 1.329.661a5.786 5.786 0 0 0 1.707.277c.586 0 1.086-.101 1.5-.297a1.47 1.47 0 0 0 .55-.439.94.94 0 0 0 .204-.571c0-.298-.161-.512-.482-.64-.225-.087-.68-.168-1.362-.244l-1.019-.105c-.684-.07-1.167-.138-1.449-.202a3.738 3.738 0 0 1-.846-.306 2.213 2.213 0 0 1-.945-.894 2.408 2.408 0 0 1-.311-1.232c0-.763.262-1.394.787-1.893.688-.657 1.719-.986 3.095-.986.576 0 1.114.059 1.613.178.497.117 1.119.333 1.864.646.256.102.412.153.469.153.093 0 .2-.052.325-.153l.184.1zM108.848 61.628v3.253c0 .139.032.242.097.315.063.072.172.129.326.169v.211h-2.816v-.211c.159-.044.269-.103.331-.172.063-.07.093-.174.093-.313v-7.635c0-.136-.03-.24-.093-.312-.063-.07-.172-.127-.331-.172v-.212h7.987c.132 0 .233-.03.304-.091s.129-.172.172-.332h.212v2.335h-.212c-.043-.161-.102-.272-.172-.333s-.172-.091-.304-.091h-5.594v2.155h3.655c.138 0 .242-.032.312-.094.07-.063.129-.172.172-.329h.212v2.28h-.212c-.043-.157-.102-.267-.172-.329-.069-.063-.174-.095-.312-.095h-3.655zM122.39 56.392c1.574 0 2.822.428 3.744 1.277.975.89 1.462 2.04 1.462 3.451 0 .863-.234 1.67-.7 2.42-.913 1.464-2.411 2.195-4.492 2.195-1.563 0-2.804-.426-3.726-1.277a4.442 4.442 0 0 1-1.124-1.632 4.692 4.692 0 0 1-.338-1.767c0-.902.232-1.729.695-2.479.886-1.431 2.379-2.161 4.479-2.188zm.006 1.534c-.859 0-1.577.257-2.149.767-.681.604-1.021 1.395-1.021 2.371 0 .979.34 1.769 1.021 2.371.572.512 1.294.767 2.163.767.87 0 1.588-.255 2.159-.767.338-.305.599-.677.779-1.117a3.19 3.19 0 0 0 .238-1.214c0-1.022-.34-1.825-1.018-2.411-.577-.503-1.301-.757-2.172-.767zM132.595 59.394v5.487c0 .139.03.242.092.313.061.069.172.128.331.172v.211h-2.652v-.211c.159-.044.269-.103.331-.172.062-.07.092-.174.092-.313v-7.643c0-.132-.03-.232-.092-.304-.063-.07-.172-.127-.331-.172v-.212h3.067v.212c-.188.049-.283.15-.283.304 0 .105.061.223.186.352l4.978 5.176v-5.355c0-.132-.03-.232-.093-.304-.063-.07-.172-.127-.33-.172v-.212h2.651v.212c-.158.045-.27.102-.33.172-.063.071-.093.172-.093.304v7.643c0 .139.03.242.093.313.061.069.172.128.33.172v.211h-2.843v-.211c.186-.04.277-.135.277-.286 0-.087-.109-.241-.324-.462l-5.057-5.225zM143.944 64.881v-7.635c0-.136-.03-.24-.093-.312-.061-.07-.172-.127-.33-.172v-.212h5.036c1.101 0 1.949.127 2.54.378a3.617 3.617 0 0 1 1.878 1.812c.323.661.483 1.434.483 2.319 0 1.557-.478 2.743-1.436 3.558a3.62 3.62 0 0 1-1.409.738c-.538.147-1.224.221-2.057.221h-5.036v-.211c.158-.044.27-.103.33-.172.064-.07.094-.173.094-.312zm1.971-.793h2.476c.79 0 1.383-.107 1.782-.323.85-.463 1.276-1.363 1.276-2.705 0-.969-.23-1.711-.689-2.227a2.117 2.117 0 0 0-.926-.612c-.362-.121-.842-.182-1.443-.182h-2.476v6.049z"/></g></svg>