<svg id="Lager_1" data-name="Lager 1" xmlns="http://www.w3.org/2000/svg" viewBox="0 0 262.17 259.04"><title>Rityta 1</title><path d="M71.15,182.13a7.86,7.86,0,0,1-5.23-5.47c-1.68,3.87-4.21,5.63-8,4.89a6.17,6.17,0,0,1-4.7-5.39c-.34-3.22,1-5.14,5.24-7.28-2.78-.53-4.51-2.24-5.62-5-.95,1.75-1.81,3.23-3.47,4a6.21,6.21,0,0,1-4.91.35,6.29,6.29,0,0,1-4.2-6.25A6.11,6.11,0,0,1,45,156.17c3.13-.82,5.54.49,7.81,4.33,1.09-2.52,2.74-4.33,5.56-4.88-3.89-1.73-5.65-4-5.37-7a6.67,6.67,0,0,1,4.67-5.74c3.28-.85,5.75.42,8.27,4.49a7.69,7.69,0,0,1,4.62-4.9c-4-3.07-5-5.46-3.87-8.54a6.34,6.34,0,0,1,12,.51c.81,3.17-.42,5.6-3.91,7.75l4.37,3.85a7.69,7.69,0,0,1,5.22-3.89c-2-.92-3.82-1.9-4.33-4a8.26,8.26,0,0,1-.11-3.82,5.59,5.59,0,0,1,6-4.1,5.7,5.7,0,0,1,5.42,4.53c.71,3.05-.59,5.26-4.44,7.35a7.66,7.66,0,0,1,4.92,3.73l4.75-4c-3.51-2.57-4.48-4.6-3.5-7.62a5.88,5.88,0,0,1,5.78-4.12,6,6,0,0,1,5.61,4.07c1,2.95,0,5.11-3.7,7.83a22.72,22.72,0,0,1,2.48,1.51,18.62,18.62,0,0,1,1.87,1.91l4.44-3.55c-.25-.17-.72-.47-1.18-.8a5.88,5.88,0,0,1-2.38-6.89,6.18,6.18,0,0,1,5.76-4.23,6.33,6.33,0,0,1,5.75,4.28,6.08,6.08,0,0,1-2.5,6.88c-.44.3-.89.57-1.08.69l4.71,4a7.14,7.14,0,0,1,6.33-3.69,7,7,0,0,1,6.39,4.22c4.4-6.35,10.65-4.94,13.42.28,1.48-2.79,3.68-4.5,6.87-4.17s5.09,2.33,5.92,5.43c2.19-4.33,4-5.59,7.52-5.23a6.23,6.23,0,0,1,5.33,4.75c.81,3.2-.24,5.14-4.07,7.82l4.51,3.84c1.41-2.13,3.46-3.93,6.51-3.79s5.09,1.91,6.48,4.77c1.56-3.13,3.81-4.81,7.22-4.47,3.13.31,4.88,2.26,5.87,5.11,2.84-4.21,5-5.37,8.17-4.42a6.15,6.15,0,0,1-.14,11.78c-3.15.87-5.51-.43-8-4.51-1.07,3-3,5-6.28,5.19s-5.37-1.45-6.72-4.33c-4.18,6.62-10.08,5.47-13.36.52-1.47,2.49-3.5,4.11-6.44,4.08s-5-1.63-6.45-4.27c-2.72,5.1-9.41,6.55-13.43.1-4.2,5.44-9.42,5.19-12.69-.87-1.28,2.61-3,4.55-5.94,4.87s-5.17-1.06-6.78-3.49l-3.21,3.45,3.44,4.32c.38-.5.82-1.15,1.34-1.73a5.94,5.94,0,0,1,6.55-1.6,5.92,5.92,0,0,1,.46,10.9,6,6,0,0,1-7.13-1.54c-.44-.52-.78-1.11-1.28-1.82l-1.92,3.19,2.87,3.19c1.73-1.16,3.49-2.46,5.8-1.94a6.94,6.94,0,0,1,4.55,2.91c2.21,3.35,1.26,6.71-3,10,2.77,1.47,4.62,3.54,4.61,6.81s-1.82,5.41-4.85,6.94c2.23,1.49,3.92,3.15,3.92,5.9a6.08,6.08,0,0,1-1.86,4.57,6.27,6.27,0,0,1-9.07-.4c-2.71-3.2-1.87-6.92,2.37-10l-2.81-1.83-3.35,3.14A7.23,7.23,0,0,1,118,216a6.44,6.44,0,0,1-10.59,3.27c-2.37-2.35-3.31-5.08-.37-9.44L104,207l-2.9,1.69c2.18,1.44,3.84,3.21,3.7,6a5.86,5.86,0,0,1-2,4.26,6.07,6.07,0,0,1-8.67-.65c-2.56-3.1-1.7-6.74,2.28-9.57a19.46,19.46,0,0,1-2.84-2.09,22.49,22.49,0,0,1-2.13-3.09c-.32.46-.68,1-1.07,1.52a5.95,5.95,0,1,1,0-7.09c.37.48.68,1,.95,1.41L94.62,195l-3.25-3.91c-1.8,2.59-4.2,4.22-7.65,3.16a5.89,5.89,0,0,1-4.38-5.41c-.27-3.3,1.66-5.43,5.14-6.86a7.46,7.46,0,0,1-5-4l-4.75,4.31c3.58,2.27,4.86,4.77,3.91,7.89a6.23,6.23,0,0,1-12-.54C65.86,186.65,67.27,184.2,71.15,182.13Zm-5.39-16.93c-2.51,2.81-2.73,3-5.23,3.72a17.29,17.29,0,0,1,3.08,1.82,16.88,16.88,0,0,1,2.12,2.73L69.67,169Zm91.83-15.43a7.56,7.56,0,0,1-4.34,5.61,24.74,24.74,0,0,1,2.62,1.88,16.32,16.32,0,0,1,1.63,2l4.65-4C160,154.45,158.46,152.64,157.59,149.76Zm-96.87,5.79c2.38.5,3.79,2.2,5,3.84l3.86-3.82-4-4.55A7.28,7.28,0,0,1,60.72,155.55Zm74.83.25-4.07-3.75-3.78,3.61,3.85,4.21Zm8.67,3.48,4.21-3.86-3.64-3.59-4.21,4ZM95,181.45l-3.17-3.84a7.13,7.13,0,0,1-4.54,4.29l4.17,3.53Zm-15.79-8.65,3.26-3.52-3.58-3.17L75.48,169Zm43-17-3.9-3.6-2.71,3,3.7,3.15ZM92,173,95.4,169l-3.14-2.83-3.53,3.07ZM75.49,155.54l3.35,2.79L81.69,155,79,152.11Zm13.56-.12,3.18,2.91,2.83-2.61L92,152.33Zm16.1,16.37,2.74-2.9-2.77-2.52-2.79,2.49Zm0-13.66,2.56-2.38-2.53-2.66-2.7,2.71Zm-1.12,24.69,2.35-2.29L105,178.79l-2.62,2.77Zm15.92,10L118.4,195l1.29,1.46,2.71-1.8Zm-15.83,3.45a12,12,0,0,0,.56-1.77c0-.09-.67-.47-.88-.38a5.47,5.47,0,0,0-1.18,1Z"/><path d="M53.08,43.32c1-3.06,2.85-5,6-5.09,3.63-.15,5.69,1.87,6.87,5.51,1-3.59,3.15-5.66,6.53-5.73,3.14-.07,5.32,1.7,6.55,4.93,1.18-2.2,2.44-4.13,4.81-4.53a8.87,8.87,0,0,1,4.07.25A6.23,6.23,0,0,1,92,45a6.54,6.54,0,0,1-4.91,5.77c-3.37.71-5.72-.56-8-4.46C78,48.52,76.67,50.39,73.87,51c.79.44,1.36.73,1.92,1.06a6.23,6.23,0,0,1,3.05,6.68,6.31,6.31,0,0,1-11.73,1.88c-.33-.59-.6-1.22-1-2.06-.95,3.35-3,5.33-6.19,5.58S54.47,62.52,53,59.47c-1.17,2.27-2.67,3.92-5.24,4.53,4.35,2.65,5.74,5,5,8.12a6.62,6.62,0,0,1-5.74,5c-3,.27-5.45-1.52-7-5.29-1.42,3.59-3.7,5.85-7.68,5.33-3.09-.4-4.8-2.44-5.66-5.57-1.13,3.31-3.05,5.51-6.53,5.52S14.76,75,13.7,71.81c-2.64,4.5-5,5.81-8.43,4.78a6.21,6.21,0,0,1,.38-11.89c3.45-.77,5.77.62,8,5a7.81,7.81,0,0,1,5.55-5.5,7.77,7.77,0,0,1-5.64-5.3c-1,2.53-2.36,4.23-4.57,4.69a8.4,8.4,0,0,1-4.06-.19,6,6,0,0,1-4.06-6.3A6.41,6.41,0,0,1,5.77,51.3c3.24-.66,5.69.7,7.66,4.33a20,20,0,0,1,2.5-3.11,20.21,20.21,0,0,1,3.56-2c-2-.46-3.75-1.3-4.53-3.15a7.85,7.85,0,0,1-.68-3.76A5.74,5.74,0,0,1,20.2,38.6,5.92,5.92,0,0,1,26,43.52c.51,3.35-1.16,5.72-5.31,7.21,3,.82,5.05,2.36,5.88,5.22a21.22,21.22,0,0,1,2.26-3.16,16.71,16.71,0,0,1,3-1.91c-4.21-2.72-5.43-5-4.39-8.24a6.27,6.27,0,0,1,6.19-4.29A6.38,6.38,0,0,1,39.35,43c.8,3.16-.68,5.68-4.87,8a7.39,7.39,0,0,1,5.3,4.84,21.69,21.69,0,0,1,2.24-3,18,18,0,0,1,2.91-1.89c-3.25-1.42-5.3-3.75-4.6-7.66a6.21,6.21,0,0,1,4.94-4.9C48.64,37.77,50.7,39.06,53.08,43.32ZM26.76,58.78a7.57,7.57,0,0,1-5.32,5.29c3.49,2,3.61,2.09,5.4,5.72.47-3.05,2.49-4.62,5.29-5.78A7.51,7.51,0,0,1,26.76,58.78ZM40,69.44c.8-2.7,2.63-4.26,5.54-5.31a7.64,7.64,0,0,1-5.55-5,19.67,19.67,0,0,1-2.15,3,21,21,0,0,1-3.12,2A7.83,7.83,0,0,1,40,69.44ZM66,56.33a21.34,21.34,0,0,1,2.16-3.26,18.9,18.9,0,0,1,3-2.11c-2.75-.77-4.33-2.63-5.23-5.73A7.6,7.6,0,0,1,60.86,51,7.17,7.17,0,0,1,66,56.33Zm-17.94-5.4c2.3.75,3.76,2.38,5,4.76A7.4,7.4,0,0,1,58,51a7.69,7.69,0,0,1-5-5.49C52,48.3,50.56,50,48.07,50.92Z"/><path d="M257,207.91c4.5,2.53,5.88,4.95,4.92,8.4a6.37,6.37,0,0,1-12.4-.73c-.59-3.11,1.14-5.72,5.05-7.48a20.06,20.06,0,0,1-3-1.94,20.77,20.77,0,0,1-2.22-3,7.83,7.83,0,0,1-5,4.95c3.84,2.12,5.31,4.79,4.51,7.92a6.58,6.58,0,0,1-6.29,4.86,6.39,6.39,0,0,1-6.17-5c-.77-3.24.63-5.73,4.44-7.78a7.74,7.74,0,0,1-4.61-4.31,11.86,11.86,0,0,0-.78.91c-1.87,2.75-4.28,3.81-7.32,3.19a6.77,6.77,0,0,1-5-5.22c-.51-2.89.74-5.38,3.59-7.13l.49-.28L222.77,191c-2.1,3.27-4.64,4.63-7.63,4a6.82,6.82,0,0,1-5.32-5.72c-.46-2.91,1.06-5.38,4.26-7.18l-4.3-4.23c-1.39,3-3.77,4.7-7.36,4.3-3.13-.34-4.89-2.33-5.93-5.36-1,2-2.1,3.7-4.22,4.39a6,6,0,0,1-3.85,0,6.15,6.15,0,0,1-4.15-5.81,6.24,6.24,0,0,1,5-5.86c2.77-.54,5,.7,7.26,4.51,1.06-3.17,3.1-5.2,6.48-5.36s5.5,1.61,6.9,4.72c1.93-3.19,4.33-5.35,8.29-4.29a6.15,6.15,0,0,1,4.81,5.31c.51,3.5-1.17,5.91-4.18,7.31l4.33,4.11a7.47,7.47,0,0,1,5.47-4.29c-4-1.89-5.47-4.22-4.72-7.41a5.72,5.72,0,0,1,5.88-4.54,5.91,5.91,0,0,1,5.69,4.52c.71,3.14-.85,5.63-4.77,7.37a7.85,7.85,0,0,1,5.68,5c.42-.58.7-1,1-1.38a6.25,6.25,0,0,1,6.6-2.77,6.42,6.42,0,0,1,4.88,5.53,6.33,6.33,0,0,1-3.6,6.2l-1.62.8a7.51,7.51,0,0,1,5.67,5.24c.33-.52.57-.84.76-1.19a6.43,6.43,0,0,1,6.65-3.58A6.35,6.35,0,0,1,258,207.47C257.73,207.61,257.41,207.73,257,207.91Zm-24.8-12.61a20.56,20.56,0,0,1,2.17,1.64,23.68,23.68,0,0,1,1.88,2.32,7.3,7.3,0,0,1,4.84-4.33l-4.56-4Z"/><path d="M66,108.72c1-3,2.78-5,5.94-5.25,3.35-.3,5.57,1.31,7.09,4.52,1.55-2.78,3.54-4.72,6.87-4.51s5.12,2.14,6.32,5.4c1.26-3.52,3.43-5.41,6.9-5.31,2.82.08,4.61,1.72,6.19,5.39,1.64-4,4.11-5.73,7.34-5.12a6.21,6.21,0,0,1,.18,12.27c-3.29.72-5.81-1-7.59-5.16-1,3.33-3,5.49-6.61,5.45-3.24,0-5.22-1.93-6.34-5.21-1.3,3-3.06,5.17-6.43,5.32s-5.28-1.67-6.78-4.53c-1.48,3-3.62,4.82-6.94,4.58s-5.13-2.13-6.09-5.17c-2.64,4.29-5.11,5.81-8,4.94-3.26-1-5.27-3.58-5.13-6.57a6.57,6.57,0,0,1,5.15-6.08C61.26,103,63.84,104.54,66,108.72Z"/><path d="M33.43,181.69a6.26,6.26,0,1,1,6.2-6.36A6.23,6.23,0,0,1,33.43,181.69Z"/><path d="M40.29,122.9a6.29,6.29,0,0,1,6.33-6.24,6.29,6.29,0,1,1-.08,12.57A6.32,6.32,0,0,1,40.29,122.9Z"/><path d="M46.51,181.64a6.21,6.21,0,1,1,6.33-6.3A6.15,6.15,0,0,1,46.51,181.64Z"/><path d="M59.35,129.14a6.19,6.19,0,1,1,.34-12.38,6.19,6.19,0,1,1-.34,12.38Z"/><path d="M104.93,44.64a6.23,6.23,0,0,1-6.25,6.09,6.18,6.18,0,0,1,.17-12.36A6.25,6.25,0,0,1,104.93,44.64Z"/><path d="M236.48,240.58a6.13,6.13,0,1,1,6.12,6.22A6.21,6.21,0,0,1,236.48,240.58Z"/><path d="M104.87,96.9a6.11,6.11,0,1,1-12.21-.29,6.24,6.24,0,0,1,6.14-6A6.18,6.18,0,0,1,104.87,96.9Z"/><path d="M27.23,136a6.11,6.11,0,1,1,6.05,6.26A6.18,6.18,0,0,1,27.23,136Z"/><path d="M72.64,129a6,6,0,0,1-6.1-6.11,6.11,6.11,0,0,1,12.21,0A6,6,0,0,1,72.64,129Z"/><path d="M59.42,64.64a6,6,0,1,1,.06,12.07,6,6,0,1,1-.06-12.07Z"/><path d="M125,116a6,6,0,1,1,6-6A6,6,0,0,1,125,116Z"/><path d="M14.05,149.18a6.15,6.15,0,0,1,6.1-6.22,6.11,6.11,0,0,1,0,12.22A6.15,6.15,0,0,1,14.05,149.18Z"/><path d="M33.31,168.26a6,6,0,0,1-.05-12,6,6,0,1,1,.05,12Z"/><path d="M98.89,25.34a6,6,0,1,1-6.22,6A6,6,0,0,1,98.89,25.34Z"/><path d="M65.5,188.47a6,6,0,0,1-6.08,6,6.15,6.15,0,0,1-6.05-6.07,6.3,6.3,0,0,1,6.24-6.15A6.15,6.15,0,0,1,65.5,188.47Z"/><path d="M65.5,136.11a6.05,6.05,0,0,1-6.14,6.15c-3.16.13-6-2.94-6-6.11A6.27,6.27,0,0,1,59.55,130,6.14,6.14,0,0,1,65.5,136.11Z"/><path d="M85.7,37.37a6,6,0,1,1-.21-12,6,6,0,1,1,.21,12Z"/><path d="M26.15,188.38a6.06,6.06,0,0,1-6,6.07,6.06,6.06,0,1,1,0-12.13A6,6,0,0,1,26.15,188.38Z"/><path d="M7.17,156.25a6,6,0,0,1,.06,12,6,6,0,1,1-.06-12Z"/><path d="M157,109.9a5.93,5.93,0,0,1-5.91,6.06,6,6,0,0,1-.18-12A5.94,5.94,0,0,1,157,109.9Z"/><path d="M85.65,63.47a6,6,0,0,1-.23-11.92,6,6,0,1,1,.23,11.92Z"/><path d="M85.58,102.79a6,6,0,0,1-.08-11.93,6,6,0,1,1,.08,11.93Z"/><path d="M117.68,96.71a5.92,5.92,0,0,1-5.92,6.08,6,6,0,1,1-.2-11.92A5.87,5.87,0,0,1,117.68,96.71Z"/><path d="M52.45,149.29a5.85,5.85,0,0,1-6.22,5.7,5.92,5.92,0,1,1,.44-11.83A5.83,5.83,0,0,1,52.45,149.29Z"/><path d="M248.54,227.77a5.84,5.84,0,0,1-6.08,5.84,5.92,5.92,0,1,1,.17-11.84A5.83,5.83,0,0,1,248.54,227.77Z"/><path d="M117.66,240.63a5.85,5.85,0,0,1-6,5.94,5.92,5.92,0,1,1,0-11.84A5.83,5.83,0,0,1,117.66,240.63Z"/><path d="M138,104a6,6,0,0,1,.06,11.93A6,6,0,1,1,138,104Z"/><path d="M164.24,116a6,6,0,0,1-.06-11.93,6,6,0,1,1,.06,11.93Z"/><path d="M117.61,31.36a5.89,5.89,0,1,1-11.78-.09,5.89,5.89,0,0,1,11.78.09Z"/><path d="M33.29,194.25a5.86,5.86,0,1,1,.09-11.73,5.86,5.86,0,1,1-.09,11.73Z"/><path d="M46.63,130.26A5.86,5.86,0,1,1,46.39,142a5.86,5.86,0,1,1,.24-11.72Z"/><path d="M33.3,143.21a5.86,5.86,0,1,1,.07,11.73,5.86,5.86,0,1,1-.07-11.73Z"/><path d="M125,234.8a5.84,5.84,0,1,1-6,5.68A5.82,5.82,0,0,1,125,234.8Z"/><path d="M26,162.16a5.87,5.87,0,1,1-5.91-5.83A6,6,0,0,1,26,162.16Z"/><path d="M78.5,31.45a5.87,5.87,0,1,1-5.74-6A6,6,0,0,1,78.5,31.45Z"/><path d="M20.15,89.67a5.81,5.81,0,1,1,0-11.62,5.81,5.81,0,1,1,0,11.62Z"/><path d="M72.66,233.49a5.8,5.8,0,1,1-.05-11.6,5.8,5.8,0,1,1,.05,11.6Z"/><path d="M20,169.64a5.79,5.79,0,1,1,.1,11.58,5.79,5.79,0,0,1-.1-11.58Z"/><path d="M20.15,141.91A5.79,5.79,0,0,1,20,130.33a5.79,5.79,0,1,1,.11,11.58Z"/><path d="M39.11,123a5.87,5.87,0,0,1-5.69,5.84,5.86,5.86,0,0,1-.19-11.72A5.86,5.86,0,0,1,39.11,123Z"/><path d="M40.73,110a5.85,5.85,0,0,1,5.67-5.85,5.86,5.86,0,1,1,0,11.71A5.87,5.87,0,0,1,40.73,110Z"/><path d="M124.95,102.58A5.78,5.78,0,1,1,124.84,91a5.78,5.78,0,1,1,.11,11.56Z"/><path d="M177.07,154.84a5.78,5.78,0,1,1,.16-11.56,5.78,5.78,0,1,1-.16,11.56Z"/><path d="M78.4,201.45a5.82,5.82,0,0,1-5.77,5.93,5.82,5.82,0,1,1,0-11.64A5.79,5.79,0,0,1,78.4,201.45Z"/><path d="M91.35,122.84a5.82,5.82,0,0,1-5.78,5.93,5.82,5.82,0,1,1,0-11.64A5.79,5.79,0,0,1,91.35,122.84Z"/><path d="M72.73,102.56a5.75,5.75,0,1,1-.08-11.5,5.75,5.75,0,0,1,.08,11.5Z"/><path d="M261.52,175.45a5.72,5.72,0,0,1-5.71,5.74,5.76,5.76,0,1,1,0-11.52A5.74,5.74,0,0,1,261.52,175.45Z"/><path d="M169.93,175.35a5.72,5.72,0,0,1-5.59,5.83,5.76,5.76,0,1,1-.16-11.51A5.75,5.75,0,0,1,169.93,175.35Z"/><path d="M85.57,234.87a5.76,5.76,0,0,1,.15,11.52,5.76,5.76,0,1,1-.15-11.52Z"/><path d="M98.71,246.38a5.75,5.75,0,0,1,0-11.5,5.75,5.75,0,1,1,0,11.5Z"/><path d="M1.49,148.91a5.74,5.74,0,0,1,5.83-5.6A5.75,5.75,0,1,1,7,154.81,5.73,5.73,0,0,1,1.49,148.91Z"/><path d="M138.16,234.88a5.75,5.75,0,1,1-.27,11.5,5.75,5.75,0,0,1,.27-11.5Z"/><path d="M229.54,246.39a5.76,5.76,0,0,1,.11-11.52,5.76,5.76,0,1,1-.11,11.52Z"/><path d="M7.16,89.6a5.74,5.74,0,0,1,.09-11.48A5.74,5.74,0,1,1,7.16,89.6Z"/><path d="M151.1,233.42A5.73,5.73,0,0,1,151,222a5.73,5.73,0,1,1,.14,11.46Z"/><path d="M7.17,50.28a5.73,5.73,0,0,1,.06-11.46,5.73,5.73,0,1,1-.06,11.46Z"/><path d="M39,83.8a5.72,5.72,0,0,1-5.67,5.78A5.72,5.72,0,1,1,39,83.8Z"/><path d="M59.45,207.28a5.71,5.71,0,0,1-.09-11.42,5.71,5.71,0,1,1,.09,11.42Z"/><path d="M124.94,25.7a5.67,5.67,0,1,1-.09,11.35,5.68,5.68,0,1,1,.09-11.35Z"/><path d="M177.14,115.64a5.65,5.65,0,1,1,0-11.29,5.65,5.65,0,1,1,0,11.29Z"/><path d="M78.33,214.53a5.55,5.55,0,0,1-5.71,5.63,5.65,5.65,0,1,1,0-11.29A5.54,5.54,0,0,1,78.33,214.53Z"/><path d="M59.4,37a5.62,5.62,0,1,1,.23-11.24A5.62,5.62,0,1,1,59.4,37Z"/><path d="M7.25,195.94a5.62,5.62,0,1,1,0,11.24,5.62,5.62,0,1,1,0-11.24Z"/><path d="M236.93,149.13a5.67,5.67,0,1,1,5.78,5.65A5.73,5.73,0,0,1,236.93,149.13Z"/><path d="M19.94,207.16A5.6,5.6,0,1,1,20.46,196a5.6,5.6,0,1,1-.52,11.19Z"/><path d="M143.73,96.9A5.65,5.65,0,1,1,138,91.11,5.73,5.73,0,0,1,143.73,96.9Z"/><path d="M12.85,175.52a5.73,5.73,0,0,1-5.63,5.6,5.7,5.7,0,0,1,0-11.39A5.73,5.73,0,0,1,12.85,175.52Z"/><path d="M255.63,167.83a5.59,5.59,0,1,1,5.8-5.55A5.51,5.51,0,0,1,255.63,167.83Z"/><path d="M98.72,117.36a5.57,5.57,0,1,1,.08,11.15,5.57,5.57,0,1,1-.08-11.15Z"/><path d="M117.31,44.5a5.62,5.62,0,1,1-11.23,0,5.62,5.62,0,1,1,11.23,0Z"/><path d="M261.42,188.33a5.69,5.69,0,0,1-5.52,5.7,5.62,5.62,0,0,1-5.71-5.49,5.62,5.62,0,1,1,11.23-.21Z"/><path d="M7.1,220.07a5.56,5.56,0,1,1,.08-11.12,5.56,5.56,0,1,1-.08,11.12Z"/><path d="M203.19,128.49a5.56,5.56,0,1,1,.31-11.1,5.55,5.55,0,0,1-.31,11.1Z"/><path d="M195.9,149.06a5.54,5.54,0,0,1-5.56,5.62,5.61,5.61,0,1,1,0-11.22A5.53,5.53,0,0,1,195.9,149.06Z"/><path d="M138,220a5.55,5.55,0,1,1,.16-11.1A5.55,5.55,0,1,1,138,220Z"/><path d="M216.52,167.79a5.55,5.55,0,1,1-.1-11.1,5.55,5.55,0,1,1,.1,11.1Z"/><path d="M190.27,128.47a5.54,5.54,0,1,1,.14-11.08,5.54,5.54,0,0,1-.14,11.08Z"/><path d="M164,220a5.53,5.53,0,0,1,.37-11.06A5.53,5.53,0,1,1,164,220Z"/><path d="M255.82,222.16a5.62,5.62,0,0,1,5.55,5.62,5.68,5.68,0,0,1-5.73,5.46,5.54,5.54,0,0,1,.18-11.08Z"/><path d="M216.56,207.07a5.52,5.52,0,1,1-.07-11,5.52,5.52,0,0,1,.07,11Z"/><path d="M124.83,233.19a5.49,5.49,0,1,1,.15-11,5.49,5.49,0,1,1-.15,11Z"/><path d="M229.56,220a5.51,5.51,0,1,1,.17-11,5.51,5.51,0,0,1-.17,11Z"/><path d="M7.16,193.83a5.45,5.45,0,1,1,.09-10.89,5.45,5.45,0,1,1-.09,10.89Z"/><path d="M151.11,91.37a5.45,5.45,0,1,1-.17,10.89,5.45,5.45,0,1,1,.17-10.89Z"/><path d="M67.2,70.65a5.51,5.51,0,0,1,5.42-5.46,5.49,5.49,0,1,1-.06,11A5.48,5.48,0,0,1,67.2,70.65Z"/><path d="M64.9,214.44A5.48,5.48,0,0,1,59.59,220a5.49,5.49,0,1,1,5.31-5.56Z"/><path d="M143.52,31.42a5.48,5.48,0,0,1-5.44,5.43,5.49,5.49,0,1,1,5.44-5.43Z"/><path d="M156.46,18.46a5.44,5.44,0,1,1-5.34-5.51A5.51,5.51,0,0,1,156.46,18.46Z"/><path d="M235.09,136.16a5.3,5.3,0,0,1-5.42,5.35,5.39,5.39,0,1,1,.08-10.78A5.31,5.31,0,0,1,235.09,136.16Z"/><path d="M203.3,193.77a5.39,5.39,0,1,1-.14-10.78,5.39,5.39,0,1,1,.14,10.78Z"/><path d="M98.68,52.11a5.39,5.39,0,1,1,.07,10.78,5.39,5.39,0,1,1-.07-10.78Z"/><path d="M91,214.43a5.42,5.42,0,1,1-10.83.16A5.42,5.42,0,1,1,91,214.43Z"/><path d="M41.1,31.36a5.41,5.41,0,1,1,5.4,5.47A5.49,5.49,0,0,1,41.1,31.36Z"/><path d="M125,130.75a5.37,5.37,0,1,1-.13,10.74,5.37,5.37,0,1,1,.13-10.74Z"/><path d="M46.53,89.21a5.35,5.35,0,1,1,5.41-5.36A5.31,5.31,0,0,1,46.53,89.21Z"/><path d="M221.83,136.1a5.25,5.25,0,0,1-5.41,5.34,5.33,5.33,0,1,1,5.41-5.34Z"/><path d="M7.28,233A5.33,5.33,0,0,1,7,222.36,5.33,5.33,0,1,1,7.28,233Z"/><path d="M138.16,222.35A5.33,5.33,0,1,1,137.9,233a5.33,5.33,0,0,1,.27-10.66Z"/><path d="M111.74,222.35a5.34,5.34,0,1,1-5.4,5.38A5.32,5.32,0,0,1,111.74,222.35Z"/><path d="M138.14,141.44a5.32,5.32,0,1,1-.1-10.64,5.32,5.32,0,1,1,.1,10.64Z"/><path d="M59.57,91.49a5.32,5.32,0,1,1-.2,10.64,5.32,5.32,0,1,1,.2-10.64Z"/><path d="M145.71,214.55a5.38,5.38,0,0,1,5.4-5.43A5.39,5.39,0,0,1,151,219.9,5.39,5.39,0,0,1,145.71,214.55Z"/><path d="M229.58,154.37a5.31,5.31,0,0,1,0-10.61,5.31,5.31,0,1,1,0,10.61Z"/><path d="M20.09,233a5.3,5.3,0,0,1,0-10.59,5.3,5.3,0,1,1,0,10.59Z"/><path d="M242.64,180.71a5.29,5.29,0,0,1-.08-10.57,5.29,5.29,0,1,1,.08,10.57Z"/><path d="M90.84,227.66A5.23,5.23,0,0,1,85.61,233a5.29,5.29,0,1,1-.05-10.57A5.25,5.25,0,0,1,90.84,227.66Z"/><path d="M111.67,117.66a5.29,5.29,0,1,1,0,10.58,5.29,5.29,0,0,1,0-10.58Z"/><path d="M177.12,128.14a5.2,5.2,0,1,1,.17-10.4,5.2,5.2,0,0,1-.17,10.4Z"/><path d="M138.17,23.67A5.24,5.24,0,1,1,138,13.19a5.24,5.24,0,1,1,.17,10.48Z"/><path d="M182.41,31.48A5.19,5.19,0,0,1,177,36.62a5.24,5.24,0,1,1,.21-10.47A5.14,5.14,0,0,1,182.41,31.48Z"/><path d="M164.19,26.18a5.2,5.2,0,1,1-.08,10.4,5.2,5.2,0,1,1,.08-10.4Z"/><path d="M151.11,36.58a5.2,5.2,0,0,1-.28-10.4,5.2,5.2,0,1,1,.28,10.4Z"/><path d="M242.61,167.45a5.2,5.2,0,1,1,.1-10.4,5.2,5.2,0,1,1-.1,10.4Z"/><path d="M41.29,188.46a5.25,5.25,0,0,1,5.19-5.35,5.26,5.26,0,0,1,.17,10.52A5.23,5.23,0,0,1,41.29,188.46Z"/><path d="M111.68,23.57a5.15,5.15,0,1,1,5.27-5.23A5.07,5.07,0,0,1,111.68,23.57Z"/><path d="M20.05,219.65a5.15,5.15,0,1,1,.2-10.29,5.15,5.15,0,1,1-.2,10.29Z"/><path d="M77.84,240.74a5.2,5.2,0,1,1-5.2-5.34A5.26,5.26,0,0,1,77.84,240.74Z"/><path d="M190.31,115.12a5.13,5.13,0,1,1,5.22-5.22A5.07,5.07,0,0,1,190.31,115.12Z"/><path d="M25.32,240.62A5.18,5.18,0,1,1,15,240.54a5.3,5.3,0,0,1,5.22-5.13A5.27,5.27,0,0,1,25.32,240.62Z"/><path d="M172,175.26a5.17,5.17,0,1,1,4.94,5.39A5.26,5.26,0,0,1,172,175.26Z"/><path d="M169.39,18.46a5.17,5.17,0,1,1-5.08-5.15A5.08,5.08,0,0,1,169.39,18.46Z"/><path d="M156.17,136.15a5.25,5.25,0,0,1-5.12,5.18,5.21,5.21,0,1,1,.07-10.43A5.24,5.24,0,0,1,156.17,136.15Z"/><path d="M103.91,227.66a5.24,5.24,0,0,1-5.06,5.24,5.21,5.21,0,1,1,0-10.43A5.24,5.24,0,0,1,103.91,227.66Z"/><path d="M156.14,175.54a5.11,5.11,0,0,1-5.22,5.06,5.24,5.24,0,0,1-5.05-5.28,5.35,5.35,0,0,1,5.27-5.09A5.22,5.22,0,0,1,156.14,175.54Z"/><path d="M103.86,83.91A5,5,0,0,1,98.72,89a5.23,5.23,0,0,1-5.11-5.19,5.34,5.34,0,0,1,5.21-5.12A5.18,5.18,0,0,1,103.86,83.91Z"/><path d="M64.55,83.87A5,5,0,0,1,59.44,89a5.24,5.24,0,0,1-5.15-5.16,5.34,5.34,0,0,1,5.17-5.16A5.19,5.19,0,0,1,64.55,83.87Z"/><path d="M119.83,44.45a5.09,5.09,0,0,1,5.23-5,5.13,5.13,0,0,1-.21,10.25A5.13,5.13,0,0,1,119.83,44.45Z"/><path d="M124.93,23.5a5.09,5.09,0,1,1,0-10.17,5.09,5.09,0,1,1,0,10.17Z"/><path d="M33.44,36.44a5.08,5.08,0,0,1-.32-10.15,5.08,5.08,0,1,1,.32,10.15Z"/><path d="M216.45,128a5.07,5.07,0,0,1-.07-10.13,5.07,5.07,0,1,1,.07,10.13Z"/><path d="M25.19,123a5,5,0,0,1-5.13,5,5.07,5.07,0,0,1,.05-10.13A5,5,0,0,1,25.19,123Z"/><path d="M98.83,23.48a5.14,5.14,0,0,1-5.18-5.05,5.18,5.18,0,0,1,5.16-5.08,5.07,5.07,0,0,1,0,10.13Z"/><path d="M172.16,18.4a5,5,0,0,1,5-5,5,5,0,1,1-.05,10.09A5,5,0,0,1,172.16,18.4Z"/><path d="M234.67,253.8a5,5,0,0,1-5.13,5.07,5.06,5.06,0,1,1,.2-10.11A5,5,0,0,1,234.67,253.8Z"/><path d="M28.33,109.89a5,5,0,0,1,5-4.95,5,5,0,1,1-.2,10.09A5,5,0,0,1,28.33,109.89Z"/><path d="M85.59,65.65a5,5,0,0,1,.12,10.06,5,5,0,1,1-.12-10.06Z"/><path d="M164.29,101.83a5,5,0,1,1-.16-10,5,5,0,1,1,.16,10Z"/><path d="M46.55,101.83a5,5,0,1,1-.07-10,5,5,0,1,1,.07,10Z"/><path d="M116.72,84a4.88,4.88,0,0,1-5,4.88,5,5,0,1,1,.18-9.94A4.87,4.87,0,0,1,116.72,84Z"/><path d="M125,78.93a4.94,4.94,0,1,1-.32,9.87,4.94,4.94,0,0,1,.32-9.87Z"/><path d="M255.8,245.55a4.92,4.92,0,1,1,0-9.83,4.92,4.92,0,1,1,0,9.83Z"/><path d="M12.17,136.25A4.85,4.85,0,0,1,7.07,141a4.92,4.92,0,1,1,.27-9.83A4.85,4.85,0,0,1,12.17,136.25Z"/><path d="M85.64,78.95a4.92,4.92,0,1,1-5,4.86A4.9,4.9,0,0,1,85.64,78.95Z"/><path d="M7.25,91.89a4.92,4.92,0,1,1-.1,9.83,4.92,4.92,0,1,1,.1-9.83Z"/><path d="M25.11,96.79a4.86,4.86,0,0,1-5,4.91,4.9,4.9,0,1,1,0-9.79A4.87,4.87,0,0,1,25.11,96.79Z"/><path d="M33.27,91.93a4.88,4.88,0,0,1,.23,9.76,4.88,4.88,0,1,1-.23-9.76Z"/><path d="M195.29,31.3a4.94,4.94,0,1,1-5.08-4.92A5.05,5.05,0,0,1,195.29,31.3Z"/><path d="M38.23,201.58a4.92,4.92,0,1,1-4.77-5A5,5,0,0,1,38.23,201.58Z"/><path d="M138,88.73a4.87,4.87,0,1,1,.13-9.74,4.87,4.87,0,1,1-.13,9.74Z"/><path d="M260.67,31.43a4.92,4.92,0,1,1-9.84-.12,5.09,5.09,0,0,1,4.88-4.92A5,5,0,0,1,260.67,31.43Z"/><path d="M190.23,13.45a5.09,5.09,0,0,1,5,4.74,4.92,4.92,0,1,1-9.83.46A5,5,0,0,1,190.23,13.45Z"/><path d="M38.21,240.53a4.78,4.78,0,0,1-4.66,5,4.86,4.86,0,1,1-.44-9.71A4.8,4.8,0,0,1,38.21,240.53Z"/><path d="M151,245.49a4.86,4.86,0,1,1,.07-9.72,4.86,4.86,0,1,1-.07,9.72Z"/><path d="M203.28,141a4.86,4.86,0,1,1,0-9.72,4.86,4.86,0,1,1,0,9.72Z"/><path d="M7.31,245.48a4.85,4.85,0,0,1-.31-9.7,4.86,4.86,0,1,1,.31,9.7Z"/><path d="M72.69,79a4.85,4.85,0,0,1,0,9.7,4.85,4.85,0,1,1,0-9.7Z"/><path d="M242.68,26.5a4.88,4.88,0,1,1-.28,9.75,4.88,4.88,0,0,1,.28-9.75Z"/><path d="M229.66,222.85a4.83,4.83,0,1,1,0,9.66,4.83,4.83,0,0,1,0-9.66Z"/><path d="M129.7,253.72a4.76,4.76,0,0,1-4.71,4.91,4.81,4.81,0,1,1-.19-9.63A4.74,4.74,0,0,1,129.7,253.72Z"/><path d="M198.49,18.41a4.72,4.72,0,0,1,4.82-4.79,4.81,4.81,0,1,1,0,9.63A4.76,4.76,0,0,1,198.49,18.41Z"/><path d="M111.74,258.58a4.76,4.76,0,1,1,.09-9.52,4.76,4.76,0,1,1-.09,9.52Z"/><path d="M20.25,114.76A4.69,4.69,0,0,1,15.37,110a4.65,4.65,0,0,1,4.57-4.78,4.76,4.76,0,1,1,.3,9.52Z"/><path d="M111.79,52.69a4.81,4.81,0,1,1-.26,9.61,4.81,4.81,0,0,1,.26-9.61Z"/><path d="M221.23,253.91a4.64,4.64,0,0,1-5,4.63,4.72,4.72,0,1,1,.41-9.44A4.62,4.62,0,0,1,221.23,253.91Z"/><path d="M125,118.22a4.72,4.72,0,1,1-.12,9.45,4.72,4.72,0,1,1,.12-9.45Z"/><path d="M181.91,96.86a4.77,4.77,0,1,1-9.54-.1A4.89,4.89,0,0,1,177.09,92,4.83,4.83,0,0,1,181.91,96.86Z"/><path d="M151.11,79.08a4.78,4.78,0,1,1-4.81,4.59A4.82,4.82,0,0,1,151.11,79.08Z"/><path d="M64.21,227.64a4.74,4.74,0,1,1-4.68-4.73A4.82,4.82,0,0,1,64.21,227.64Z"/><path d="M203.31,249.12a4.7,4.7,0,1,1,0,9.39,4.69,4.69,0,1,1,0-9.39Z"/><path d="M221.19,240.75a4.84,4.84,0,0,1-4.77,4.65,4.77,4.77,0,1,1,.22-9.53A4.85,4.85,0,0,1,221.19,240.75Z"/><path d="M229.7,23.12a4.69,4.69,0,1,1-.11-9.39,4.7,4.7,0,1,1,.11,9.39Z"/><path d="M164.21,118.27a4.67,4.67,0,1,1-4.75,4.62A4.65,4.65,0,0,1,164.21,118.27Z"/><path d="M7.28,114.66a4.68,4.68,0,1,1-.06-9.35,4.67,4.67,0,1,1,.06,9.35Z"/><path d="M203.25,105.33a4.66,4.66,0,1,1-4.68,4.63A4.59,4.59,0,0,1,203.25,105.33Z"/><path d="M7.3,127.59a4.66,4.66,0,1,1-.1-9.31,4.66,4.66,0,0,1,.1,9.31Z"/><path d="M85.61,23.07a4.66,4.66,0,1,1,4.7-4.61A4.58,4.58,0,0,1,85.61,23.07Z"/><path d="M216.46,13.78a4.64,4.64,0,1,1,0,9.28,4.64,4.64,0,1,1,0-9.28Z"/><path d="M98.67,258.45a4.64,4.64,0,1,1,4.77-4.54A4.56,4.56,0,0,1,98.67,258.45Z"/><path d="M168.91,227.6a4.85,4.85,0,0,1-4.6,4.83,4.74,4.74,0,0,1-.19-9.47A4.87,4.87,0,0,1,168.91,227.6Z"/><path d="M260.48,149.13a4.87,4.87,0,0,1-4.76,4.67,4.73,4.73,0,0,1,.12-9.47A4.85,4.85,0,0,1,260.48,149.13Z"/><path d="M142.71,44.48a4.6,4.6,0,0,1-4.62,4.76,4.76,4.76,0,0,1-4.71-4.72,4.87,4.87,0,0,1,4.55-4.66A4.73,4.73,0,0,1,142.71,44.48Z"/><path d="M168.91,136.16a4.88,4.88,0,0,1-4.78,4.68,4.71,4.71,0,0,1,.07-9.42A4.86,4.86,0,0,1,168.91,136.16Z"/><path d="M242.56,23a4.62,4.62,0,1,1,.17-9.24,4.62,4.62,0,0,1-.17,9.24Z"/><path d="M103.37,70.57a4.55,4.55,0,0,1-4.61,4.71,4.61,4.61,0,1,1,0-9.22A4.57,4.57,0,0,1,103.37,70.57Z"/><path d="M24.75,31.34A4.55,4.55,0,0,1,20.07,36a4.61,4.61,0,1,1,.16-9.22A4.57,4.57,0,0,1,24.75,31.34Z"/><path d="M159.6,188.38a4.66,4.66,0,0,1,4.5-4.65,4.66,4.66,0,1,1,0,9.31A4.69,4.69,0,0,1,159.6,188.38Z"/><path d="M247.2,136.07a4.69,4.69,0,0,1-4.68,4.71,4.66,4.66,0,1,1,.13-9.31A4.66,4.66,0,0,1,247.2,136.07Z"/><path d="M33.35,223.11a4.65,4.65,0,0,1,4.63,4.7,4.7,4.7,0,0,1-4.65,4.48,4.59,4.59,0,0,1-4.57-4.73A4.53,4.53,0,0,1,33.35,223.11Z"/><path d="M194.91,5.31a4.59,4.59,0,0,1-4.53,4.54,4.71,4.71,0,0,1-4.7-4.67A4.66,4.66,0,0,1,190.51.67,4.53,4.53,0,0,1,194.91,5.31Z"/><path d="M234.18,31.31a4.53,4.53,0,0,1-4.41,4.63,4.58,4.58,0,1,1-.12-9.15A4.55,4.55,0,0,1,234.18,31.31Z"/><path d="M159.65,83.85a4.44,4.44,0,0,1,4.52-4.52,4.54,4.54,0,1,1,0,9.07A4.47,4.47,0,0,1,159.65,83.85Z"/><path d="M46.61,236.15a4.49,4.49,0,1,1-.2,9,4.49,4.49,0,1,1,.2-9Z"/><path d="M177.07.75a4.49,4.49,0,1,1,.18,9,4.41,4.41,0,0,1-4.63-4.4A4.4,4.4,0,0,1,177.07.75Z"/><path d="M111.69,66.12a4.56,4.56,0,0,1,.06,9.12,4.56,4.56,0,0,1-.06-9.12Z"/><path d="M81.07,253.67a4.57,4.57,0,0,1,4.66-4.42,4.56,4.56,0,0,1-.3,9.12A4.55,4.55,0,0,1,81.07,253.67Z"/><path d="M72.67,258.38a4.56,4.56,0,0,1-.06-9.12,4.56,4.56,0,0,1,.06,9.12Z"/><path d="M46.49,206.12a4.56,4.56,0,0,1,.05-9.12,4.56,4.56,0,0,1-.05,9.12Z"/><path d="M138,197a4.56,4.56,0,0,1,.13,9.12A4.56,4.56,0,0,1,138,197Z"/><path d="M155.53,123.11a4.51,4.51,0,1,1-4.38-4.72A4.58,4.58,0,0,1,155.53,123.11Z"/><path d="M190.28,101.23a4.42,4.42,0,1,1,4.55-4.47A4.35,4.35,0,0,1,190.28,101.23Z"/><path d="M242.63,249.28a4.53,4.53,0,1,1-.17,9.06,4.53,4.53,0,0,1,.17-9.06Z"/><path d="M129.34,70.66a4.52,4.52,0,0,1-4.53,4.54,4.52,4.52,0,0,1,.18-9A4.53,4.53,0,0,1,129.34,70.66Z"/><path d="M207.77,31.33a4.63,4.63,0,0,1-4.55,4.55,4.52,4.52,0,0,1,.15-9A4.65,4.65,0,0,1,207.77,31.33Z"/><path d="M63.94,254a4.65,4.65,0,0,1-4.53,4.34,4.52,4.52,0,0,1,.11-9A4.65,4.65,0,0,1,63.94,254Z"/><path d="M164.25,206.06a4.5,4.5,0,1,1,0-9,4.5,4.5,0,0,1,0,9Z"/><path d="M164.17,9.65a4.41,4.41,0,1,1,.06-8.81,4.36,4.36,0,0,1,4.42,4.55A4.34,4.34,0,0,1,164.17,9.65Z"/><path d="M260.19,18.38a4.51,4.51,0,0,1-4.32,4.53,4.65,4.65,0,0,1-4.56-4.57,4.66,4.66,0,0,1,4.49-4.42A4.51,4.51,0,0,1,260.19,18.38Z"/><path d="M138.17,118.44a4.5,4.5,0,1,1-.29,9,4.5,4.5,0,0,1,.29-9Z"/><path d="M203.23,9.63a4.34,4.34,0,0,1-4.36-4.4A4.36,4.36,0,0,1,203.25.84a4.4,4.4,0,1,1,0,8.79Z"/><path d="M46.44,249.37a4.46,4.46,0,1,1,0,8.92,4.46,4.46,0,0,1,0-8.92Z"/><path d="M37.72,253.72a4.45,4.45,0,0,1-4.23,4.56,4.46,4.46,0,1,1-.2-8.92A4.46,4.46,0,0,1,37.72,253.72Z"/><path d="M142.54,70.78A4.64,4.64,0,0,1,138,75.15a4.46,4.46,0,0,1,.2-8.91A4.6,4.6,0,0,1,142.54,70.78Z"/><path d="M234.11,123.05a4.64,4.64,0,0,1-4.51,4.35,4.46,4.46,0,0,1,.22-8.91A4.6,4.6,0,0,1,234.11,123.05Z"/><path d="M11.64,31.46a4.55,4.55,0,0,1-4.52,4.32A4.41,4.41,0,0,1,7.3,27,4.53,4.53,0,0,1,11.64,31.46Z"/><path d="M37.69,214.41a4.37,4.37,0,0,1-4.27,4.5,4.41,4.41,0,1,1-.19-8.81A4.36,4.36,0,0,1,37.69,214.41Z"/><path d="M146.7,44.43a4.33,4.33,0,0,1,4.51-4.25,4.51,4.51,0,0,1,4.23,4.37A4.46,4.46,0,0,1,151,48.91,4.31,4.31,0,0,1,146.7,44.43Z"/><path d="M203.37,144.7a4.37,4.37,0,1,1-.27,8.73,4.37,4.37,0,0,1,.27-8.73Z"/><path d="M63.84,240.68A4.44,4.44,0,0,1,59.37,245a4.35,4.35,0,0,1,.08-8.7A4.48,4.48,0,0,1,63.84,240.68Z"/><path d="M146.71,5.23A4.33,4.33,0,0,1,151.1.88a4.47,4.47,0,0,1,4.3,4.48,4.45,4.45,0,0,1-4.32,4.22A4.32,4.32,0,0,1,146.71,5.23Z"/><path d="M138.16,171.07a4.35,4.35,0,1,1-.27,8.7,4.35,4.35,0,0,1,.27-8.7Z"/><path d="M234.06,162.28a4.43,4.43,0,0,1-4.49,4.31,4.33,4.33,0,0,1,.05-8.66A4.39,4.39,0,0,1,234.06,162.28Z"/><path d="M125,53.16a4.34,4.34,0,0,1-.17,8.67,4.34,4.34,0,1,1,.17-8.67Z"/><path d="M216.36,27.09a4.28,4.28,0,1,1,.21,8.56,4.28,4.28,0,1,1-.21-8.56Z"/><path d="M229.6.9A4.43,4.43,0,0,1,234,5.31a4.43,4.43,0,0,1-4.29,4.27A4.34,4.34,0,0,1,229.6.9Z"/><path d="M177.17,79.52a4.34,4.34,0,0,1,0,8.67,4.34,4.34,0,1,1,0-8.67Z"/><path d="M216.43,1a4.37,4.37,0,0,1,4.29,4.24,4.24,4.24,0,1,1-8.47.1A4.34,4.34,0,0,1,216.43,1Z"/><path d="M72.69,14.22a4.2,4.2,0,1,1-.09,8.39,4.2,4.2,0,1,1,.09-8.39Z"/><path d="M138.1,249.62a4.2,4.2,0,1,1,0,8.39,4.2,4.2,0,1,1,0-8.39Z"/><path d="M150.92,74.87a4.2,4.2,0,1,1,4.36-4.09A4.12,4.12,0,0,1,150.92,74.87Z"/><path d="M216.48,114.15a4.17,4.17,0,0,1-.12-8.33,4.17,4.17,0,1,1,.12,8.33Z"/><path d="M138,53.27a4.24,4.24,0,0,1,.29,8.47,4.24,4.24,0,1,1-.29-8.47Z"/><path d="M20.22,249.65a4.16,4.16,0,1,1-.15,8.32,4.16,4.16,0,1,1,.15-8.32Z"/><path d="M216.38,218.66a4.16,4.16,0,1,1,.19-8.32,4.16,4.16,0,1,1-.19,8.32Z"/><path d="M168.32,70.74a4.18,4.18,0,0,1-4.16,4,4.11,4.11,0,0,1,.11-8.21A4.2,4.2,0,0,1,168.32,70.74Z"/><path d="M46.5,218.59a4.09,4.09,0,1,1,4.06-4.13A4.13,4.13,0,0,1,46.5,218.59Z"/><path d="M216.54,153.05a4,4,0,1,1,0-8,4,4,0,1,1,0,8Z"/><path d="M138.27,1.28a3.92,3.92,0,0,1,3.84,4,4,4,0,0,1-8.05-.14A3.93,3.93,0,0,1,138.27,1.28Z"/><path d="M164.21,48.51a4,4,0,1,1,4-3.85A3.92,3.92,0,0,1,164.21,48.51Z"/><path d="M50.53,227.69a3.94,3.94,0,0,1-4,3.95,3.95,3.95,0,1,1,0-7.9A4,4,0,0,1,50.53,227.69Z"/><path d="M207.29,97a4,4,0,0,1-4.39,3.7,3.94,3.94,0,0,1,.67-7.85A4,4,0,0,1,207.29,97Z"/><path d="M155,57.54a4,4,0,0,1-4,3.89,3.93,3.93,0,1,1,.08-7.87A4,4,0,0,1,155,57.54Z"/><path d="M246.61,5.29a4,4,0,0,1-4,3.88,3.86,3.86,0,0,1-4-4.1,3.87,3.87,0,0,1,4.06-3.77A4,4,0,0,1,246.61,5.29Z"/><path d="M173.16,136.11a4.05,4.05,0,0,1,4-3.92,3.93,3.93,0,1,1,0,7.85A4,4,0,0,1,173.16,136.11Z"/><path d="M190.36,87.77a3.91,3.91,0,0,1-.15-7.82,3.91,3.91,0,1,1,.15,7.82Z"/><path d="M207.22,240.56a4,4,0,0,1-3.74,4,3.9,3.9,0,0,1-.39-7.79A4,4,0,0,1,207.22,240.56Z"/><path d="M255.78,132.22a3.9,3.9,0,0,1,0,7.8,3.9,3.9,0,1,1,0-7.8Z"/><path d="M128.74,5.27A3.84,3.84,0,0,1,125,9.12a4,4,0,0,1-4-3.91,4,4,0,0,1,3.82-3.86A3.87,3.87,0,0,1,128.74,5.27Z"/><path d="M177.18,48.41a3.87,3.87,0,1,1,.06-7.73,3.87,3.87,0,0,1-.06,7.73Z"/><path d="M242.56,119.14a3.8,3.8,0,1,1,0,7.6,3.8,3.8,0,0,1,0-7.6Z"/><path d="M63.31,18.59a3.78,3.78,0,0,1-4.19,3.59,3.77,3.77,0,0,1,.56-7.52A3.75,3.75,0,0,1,63.31,18.59Z"/><path d="M259.6,253.9a3.69,3.69,0,0,1-3.84,3.69,3.77,3.77,0,1,1,.16-7.53A3.68,3.68,0,0,1,259.6,253.9Z"/><path d="M233.45,110a3.8,3.8,0,1,1-3.81-3.74A3.71,3.71,0,0,1,233.45,110Z"/><path d="M177.19,74.4A3.72,3.72,0,0,1,177,67a3.72,3.72,0,1,1,.16,7.44Z"/><path d="M164.3,61.33a3.83,3.83,0,0,1-.29-7.65,3.83,3.83,0,1,1,.29,7.65Z"/><path d="M111.71,9.05a4,4,0,0,1-3.77-3.87,4,4,0,0,1,3.89-3.75,3.81,3.81,0,0,1-.11,7.62Z"/><path d="M190.45,48.36a3.81,3.81,0,1,1-.11-7.62,3.81,3.81,0,0,1,.11,7.62Z"/><path d="M259.56,44.44a4,4,0,0,1-3.72,3.92,3.81,3.81,0,0,1-.22-7.61A4,4,0,0,1,259.56,44.44Z"/><path d="M190.41,250.11a3.7,3.7,0,1,1-.17,7.39,3.7,3.7,0,1,1,.17-7.39Z"/><path d="M7.17,257.51a3.7,3.7,0,1,1,0-7.39,3.7,3.7,0,1,1,0,7.39Z"/><path d="M46.48,14.73a3.68,3.68,0,0,1,.17,7.36,3.76,3.76,0,0,1-3.88-3.7A3.8,3.8,0,0,1,46.48,14.73Z"/><path d="M180.87,188.42a3.73,3.73,0,0,1-3.74,3.6,3.63,3.63,0,1,1,.08-7.25A3.68,3.68,0,0,1,180.87,188.42Z"/><path d="M190.25,132.51a3.63,3.63,0,1,1,.17,7.25,3.73,3.73,0,0,1-3.79-3.55A3.68,3.68,0,0,1,190.25,132.51Z"/><path d="M216.47,231.32a3.63,3.63,0,1,1,0-7.25,3.63,3.63,0,1,1,0,7.25Z"/><path d="M193.91,188.33a3.58,3.58,0,1,1-3.73-3.46A3.47,3.47,0,0,1,193.91,188.33Z"/><path d="M259.3,5.15a3.4,3.4,0,0,1-3.38,3.57,3.49,3.49,0,1,1-.18-7A3.42,3.42,0,0,1,259.3,5.15Z"/><path d="M177.18,61a3.49,3.49,0,1,1,.05-7,3.49,3.49,0,0,1-.05,7Z"/><path d="M220,96.76a3.4,3.4,0,0,1-3.45,3.52,3.47,3.47,0,1,1-.11-6.94A3.43,3.43,0,0,1,220,96.76Z"/><path d="M98.66,8.71a3.4,3.4,0,0,1-3.37-3.59A3.42,3.42,0,0,1,98.9,1.77a3.51,3.51,0,0,1,3.41,3.6A3.5,3.5,0,0,1,98.66,8.71Z"/><path d="M154.57,201.65a3.73,3.73,0,0,1-3.62,3.48,3.57,3.57,0,0,1,.17-7.14A3.73,3.73,0,0,1,154.57,201.65Z"/><path d="M33.26,22A3.72,3.72,0,0,1,29.8,18.3a3.67,3.67,0,0,1,3.7-3.39,3.5,3.5,0,0,1,3.28,3.51A3.55,3.55,0,0,1,33.26,22Z"/><path d="M203.24,80.41a3.45,3.45,0,1,1,.12,6.89,3.45,3.45,0,0,1-.12-6.89Z"/><path d="M259.2,123a3.4,3.4,0,0,1-3.34,3.42,3.44,3.44,0,1,1,0-6.88A3.36,3.36,0,0,1,259.2,123Z"/><path d="M193.84,70.6a3.59,3.59,0,0,1-3.53,3.53,3.4,3.4,0,0,1-3.39-3.37,3.37,3.37,0,0,1,3.23-3.51A3.54,3.54,0,0,1,193.84,70.6Z"/><path d="M177.07,198.24a3.32,3.32,0,1,1,.18,6.64,3.32,3.32,0,1,1-.18-6.64Z"/><path d="M246,110a3.26,3.26,0,0,1-3.41,3.23,3.29,3.29,0,1,1,.1-6.57A3.25,3.25,0,0,1,246,110Z"/><path d="M180.51,253.72a3.22,3.22,0,0,1-3.25,3.38,3.29,3.29,0,1,1,3.25-3.38Z"/><path d="M203.29,204.82a3.27,3.27,0,1,1,.09-6.53,3.26,3.26,0,0,1-.09,6.53Z"/><path d="M23.45,18.34a3.17,3.17,0,0,1-3.28,3.34A3.26,3.26,0,1,1,20,15.16,3.2,3.2,0,0,1,23.45,18.34Z"/><path d="M177.43,211.25a3.27,3.27,0,1,1-.65,6.51,3.27,3.27,0,0,1,.65-6.51Z"/><path d="M6.93,21.66a3.25,3.25,0,1,1,.54-6.48,3.25,3.25,0,1,1-.54,6.48Z"/><path d="M203.39,41.33a3.23,3.23,0,0,1-.22,6.45,3.23,3.23,0,1,1,.22-6.45Z"/><path d="M151.12,257a3.2,3.2,0,1,1-.07-6.4,3.2,3.2,0,0,1,.07,6.4Z"/><path d="M164.1,257a3.2,3.2,0,0,1,.1-6.4,3.2,3.2,0,1,1-.1,6.4Z"/><path d="M219.71,83.84A3.24,3.24,0,0,1,216.44,87a3.14,3.14,0,0,1,0-6.29A3.22,3.22,0,0,1,219.71,83.84Z"/><path d="M85.58,8.33a3,3,0,0,1-3.13-3.21,3,3,0,0,1,3.14-3,3.12,3.12,0,0,1,3.17,3.21A3.12,3.12,0,0,1,85.58,8.33Z"/><path d="M190.33,60.59a3.09,3.09,0,1,1,0-6.18,3.09,3.09,0,1,1,0,6.18Z"/><path d="M229.6,93.73a3.09,3.09,0,1,1,.1,6.18,3.09,3.09,0,1,1-.1-6.18Z"/><path d="M206.39,70.59a3.23,3.23,0,0,1-2.95,3.22,3.13,3.13,0,0,1-.18-6.26A3.23,3.23,0,0,1,206.39,70.59Z"/><path d="M239.57,44.54a3,3,0,0,1,3.11-3,3,3,0,1,1,0,6A3,3,0,0,1,239.57,44.54Z"/><path d="M252.7,109.95a3.23,3.23,0,0,1,3.11-3.06,3.1,3.1,0,0,1,3,3.15,3.14,3.14,0,0,1-3.08,3.07A3.25,3.25,0,0,1,252.7,109.95Z"/><path d="M151.09,191.37a3,3,0,0,1-.22-6,3.11,3.11,0,0,1,3.22,2.89A3.08,3.08,0,0,1,151.09,191.37Z"/><path d="M239.7,96.88a2.94,2.94,0,0,1,2.82-3,2.94,2.94,0,0,1,.15,5.87A2.93,2.93,0,0,1,239.7,96.88Z"/><path d="M75.53,5.17a2.93,2.93,0,0,1-2.82,3,3,3,0,0,1-3-2.86,3,3,0,0,1,2.85-3A3,3,0,0,1,75.53,5.17Z"/><path d="M232.5,84a2.94,2.94,0,0,1-3,2.79,2.91,2.91,0,1,1,3-2.79Z"/><path d="M140.94,188.45a2.94,2.94,0,0,1-3,2.83,2.91,2.91,0,1,1,3-2.83Z"/><path d="M193.14,240.74a2.92,2.92,0,0,1-2.79,2.78,2.88,2.88,0,0,1,0-5.76A2.9,2.9,0,0,1,193.14,240.74Z"/><path d="M213.78,70.6a2.71,2.71,0,0,1,2.65-2.66,2.73,2.73,0,1,1,.08,5.45A2.69,2.69,0,0,1,213.78,70.6Z"/><path d="M9.93,5.16A2.71,2.71,0,0,1,7.23,8,2.89,2.89,0,0,1,4.4,5.22,2.85,2.85,0,0,1,7.05,2.53,2.67,2.67,0,0,1,9.93,5.16Z"/><path d="M216.52,47.21a2.65,2.65,0,1,1-.1-5.31,2.66,2.66,0,1,1,.1,5.31Z"/><path d="M203.39,54.85a2.66,2.66,0,1,1-.21,5.31,2.66,2.66,0,1,1,.21-5.31Z"/><path d="M232.31,44.56a2.55,2.55,0,0,1-2.62,2.59,2.61,2.61,0,1,1,0-5.21A2.56,2.56,0,0,1,232.31,44.56Z"/><path d="M22.81,5.26a2.55,2.55,0,0,1-2.62,2.59,2.61,2.61,0,1,1,0-5.21A2.56,2.56,0,0,1,22.81,5.26Z"/><path d="M46.47,2.64a2.55,2.55,0,0,1,2.7,2.5,2.55,2.55,0,0,1-2.73,2.7,2.6,2.6,0,1,1,0-5.2Z"/><path d="M164.12,238.06a2.57,2.57,0,1,1,.19,5.14,2.57,2.57,0,1,1-.19-5.14Z"/><path d="M258.39,96.92a2.51,2.51,0,0,1-2.72,2.46,2.57,2.57,0,1,1,.21-5.14A2.5,2.5,0,0,1,258.39,96.92Z"/><path d="M59.37,7.81a2.49,2.49,0,0,1-2.52-2.66,2.51,2.51,0,0,1,2.71-2.48,2.57,2.57,0,1,1-.19,5.14Z"/><path d="M33.43,7.78a2.59,2.59,0,0,1-2.72-2.49,2.6,2.6,0,0,1,2.62-2.6,2.48,2.48,0,0,1,2.56,2.38A2.47,2.47,0,0,1,33.43,7.78Z"/><path d="M242.54,86.39a2.47,2.47,0,0,1-2.47-2.48,2.51,2.51,0,0,1,2.6-2.59,2.64,2.64,0,0,1,2.52,2.49A2.61,2.61,0,0,1,242.54,86.39Z"/><path d="M218.91,57.58a2.49,2.49,0,0,1-2.53,2.4,2.48,2.48,0,0,1,.17-5A2.51,2.51,0,0,1,218.91,57.58Z"/><path d="M232,57.55a2.44,2.44,0,0,1-2.35,2.37,2.42,2.42,0,1,1,.1-4.84A2.47,2.47,0,0,1,232,57.55Z"/><path d="M229.6,73a2.29,2.29,0,0,1-2.36-2.28A2.42,2.42,0,1,1,229.6,73Z"/><path d="M205.63,227.8a2.42,2.42,0,0,1-2.4,2.31,2.42,2.42,0,1,1,.22-4.83A2.44,2.44,0,0,1,205.63,227.8Z"/><path d="M203.2,212.2a2.3,2.3,0,0,1,.17,4.6,2.3,2.3,0,1,1-.17-4.6Z"/><path d="M242.71,55.34a2.17,2.17,0,0,1-.11,4.33,2.15,2.15,0,0,1-2.24-2.33A2.17,2.17,0,0,1,242.71,55.34Z"/><path d="M255.84,81.7a2.18,2.18,0,0,1,2.2,2.16A2.2,2.2,0,0,1,255.61,86a2.1,2.1,0,0,1-2-2.28A2.07,2.07,0,0,1,255.84,81.7Z"/><path d="M242.56,68.46a2.22,2.22,0,1,1-2.13,2.26A2.28,2.28,0,0,1,242.56,68.46Z"/><path d="M257.88,57.46a2,2,0,0,1-2,2.11,2.09,2.09,0,1,1-.07-4.16A2.06,2.06,0,0,1,257.88,57.46Z"/><path d="M255.75,72.79a2.29,2.29,0,0,1-2.1-2.07,2.22,2.22,0,0,1,2.25-2.12,2.05,2.05,0,0,1,1.92,2.16A2.09,2.09,0,0,1,255.75,72.79Z"/><path d="M192.39,201.56a2,2,0,0,1-2.1,2,1.91,1.91,0,0,1-1.95-2.08,1.89,1.89,0,0,1,1.95-1.85A2,2,0,0,1,192.39,201.56Z"/><path d="M177.08,238.63a2,2,0,0,1,2,1.8,2,2,0,0,1-1.86,2.19,2,2,0,0,1-.17-4Z"/><path d="M177.18,226a1.84,1.84,0,0,1,1.81,1.7,1.88,1.88,0,0,1-2,1.79,1.7,1.7,0,0,1-1.63-1.83A1.67,1.67,0,0,1,177.18,226Z"/><path d="M190.22,226.71a1.44,1.44,0,0,1,1.42,1.33,1.47,1.47,0,0,1-1.54,1.4,1.33,1.33,0,0,1-1.28-1.43A1.31,1.31,0,0,1,190.22,226.71Z"/><path d="M190.22,213.63a1.44,1.44,0,0,1,1.42,1.33,1.47,1.47,0,0,1-1.54,1.4,1.33,1.33,0,0,1-1.28-1.43A1.31,1.31,0,0,1,190.22,213.63Z"/></svg>