<?xml version="1.0" encoding="utf-8"?>
<!-- Generator: Adobe Illustrator 26.3.1, SVG Export Plug-In . SVG Version: 6.00 Build 0)  -->
<svg version="1.1" id="Lager_1" xmlns="http://www.w3.org/2000/svg" xmlns:xlink="http://www.w3.org/1999/xlink" x="0px" y="0px"
	 viewBox="0 0 256 36" style="enable-background:new 0 0 256 36;" xml:space="preserve">
<style type="text/css">
	.st0{clip-path:url(#SVGID_00000064330028071185587230000012513344187452578491_);}
	.st1{clip-path:url(#SVGID_00000083091057766344368310000016462069527796808838_);}
	.st2{clip-path:url(#SVGID_00000039848691886992924270000016476573956491540392_);}
	.st3{clip-path:url(#SVGID_00000101795596819901656060000005169716085848274827_);}
	.st4{clip-path:url(#SVGID_00000142140251248571481050000016348298009726679222_);}
	.st5{clip-path:url(#SVGID_00000034059231738842052560000002323204850727737276_);}
	.st6{clip-path:url(#SVGID_00000093892534054512592840000000886194210966549678_);}
	.st7{clip-path:url(#SVGID_00000117666505931237536300000007247688089742143375_);fill:#FDC304;}
	.st8{clip-path:url(#SVGID_00000102537075261066925840000000274812385304397728_);fill:#8A1D12;}
	.st9{clip-path:url(#SVGID_00000036251011160847551410000011576521456316481174_);fill:#006479;}
	.st10{clip-path:url(#SVGID_00000128453572744806250110000018073259488623353005_);fill:#017BB2;}
	.st11{clip-path:url(#SVGID_00000155839515488342014710000014556820972876219276_);fill:#009640;}
	.st12{clip-path:url(#SVGID_00000062904590618618648300000004286611653293590967_);fill:#CA9F01;}
</style>
<g>
	<g>
		<g>
			<defs>
				<rect id="SVGID_1_" x="-1" y="-1" width="257.4" height="37.4"/>
			</defs>
			<clipPath id="SVGID_00000083082167448199655650000000126621739611315585_">
				<use xlink:href="#SVGID_1_"  style="overflow:visible;"/>
			</clipPath>
			<path style="clip-path:url(#SVGID_00000083082167448199655650000000126621739611315585_);" d="M26.6,17.7c0-9.7,8-17.4,17.8-17.4
				c9.9,0,17.8,7.7,17.8,17.4s-8,17.4-17.8,17.4C34.5,35.1,26.6,27.4,26.6,17.7 M57.1,17.7C57.1,10.5,51.6,5,44.4,5
				s-12.8,5.5-12.8,12.7s5.6,12.7,12.8,12.7C51.6,30.4,57.1,24.9,57.1,17.7"/>
		</g>
		<g>
			<defs>
				<rect id="SVGID_00000148626202657515641620000003325602941266299015_" x="-1" y="-1" width="257.4" height="37.4"/>
			</defs>
			<clipPath id="SVGID_00000044868543677352779230000004649424109326823604_">
				<use xlink:href="#SVGID_00000148626202657515641620000003325602941266299015_"  style="overflow:visible;"/>
			</clipPath>
			<path style="clip-path:url(#SVGID_00000044868543677352779230000004649424109326823604_);" d="M88,34.4L76.4,19.8v14.6h-5V1.1
				h10.9c5.6,0,10,4,10,9.5c0,5.4-4.3,9.4-9.8,9.5L94,34.4H88z M76.4,5.8v9.6h6c2.9,0,5-2,5-4.8s-2.2-4.8-5-4.8H76.4z"/>
		</g>
		<g>
			<defs>
				<rect id="SVGID_00000085240874703658771300000017473341268433235339_" x="-1" y="-1" width="257.4" height="37.4"/>
			</defs>
			<clipPath id="SVGID_00000098189120132663735800000008099588765299055519_">
				<use xlink:href="#SVGID_00000085240874703658771300000017473341268433235339_"  style="overflow:visible;"/>
			</clipPath>
			<polygon style="clip-path:url(#SVGID_00000098189120132663735800000008099588765299055519_);" points="138.2,0.4 138.2,34.4 
				133.2,34.4 133.2,10.7 121.5,20.4 109.7,10.6 109.7,34.4 104.8,34.4 104.8,0.4 104.9,0.4 121.5,14.2 138.1,0.4 			"/>
		</g>
		<g>
			<defs>
				<rect id="SVGID_00000029031771519983132040000009408482819696603045_" x="-1" y="-1" width="257.4" height="37.4"/>
			</defs>
			<clipPath id="SVGID_00000160870652177959074540000010646799798941127851_">
				<use xlink:href="#SVGID_00000029031771519983132040000009408482819696603045_"  style="overflow:visible;"/>
			</clipPath>
			<path style="clip-path:url(#SVGID_00000160870652177959074540000010646799798941127851_);" d="M168.2,24.8h-12.5l-4.4,9.6h-5.1
				l15.8-34h0.1l15.8,34h-5.2L168.2,24.8z M166.1,20.1l-4.1-8.9l-4.1,8.9H166.1z"/>
		</g>
		<g>
			<defs>
				<rect id="SVGID_00000089576083489117119150000015741557745706800789_" x="-1" y="-1" width="257.4" height="37.4"/>
			</defs>
			<clipPath id="SVGID_00000086650650510504771800000016364731661557602209_">
				<use xlink:href="#SVGID_00000089576083489117119150000015741557745706800789_"  style="overflow:visible;"/>
			</clipPath>
			<path style="clip-path:url(#SVGID_00000086650650510504771800000016364731661557602209_);" d="M185,29.7h9.8c2.8,0,5-2,5-4.8
				s-2.2-4.8-5-4.8h-1.2c-5.5,0-10-4-10-9.5c0-5.4,4.5-9.5,10-9.5h9.7v4.7h-9.8c-2.8,0-5,2-5,4.8s2.2,4.8,5,4.8h1.2
				c5.5,0,10,4,10,9.5c0,5.4-4.5,9.5-10,9.5H185V29.7z"/>
		</g>
		<g>
			<defs>
				<rect id="SVGID_00000131345559024429379530000016942023366436320692_" x="-1" y="-1" width="257.4" height="37.4"/>
			</defs>
			<clipPath id="SVGID_00000110455154685016696570000010683509361584046758_">
				<use xlink:href="#SVGID_00000131345559024429379530000016942023366436320692_"  style="overflow:visible;"/>
			</clipPath>
			<polygon style="clip-path:url(#SVGID_00000110455154685016696570000010683509361584046758_);" points="18.6,15.3 18.6,20.1 
				5.4,20.1 5.4,34.4 0.6,34.4 0.6,15.3 			"/>
		</g>
		<g>
			<defs>
				<rect id="SVGID_00000127030606541926232400000014027865741818782855_" x="-1" y="-1" width="257.4" height="37.4"/>
			</defs>
			<clipPath id="SVGID_00000096034888654882923550000017263097146097617569_">
				<use xlink:href="#SVGID_00000127030606541926232400000014027865741818782855_"  style="overflow:visible;"/>
			</clipPath>
			<polygon style="clip-path:url(#SVGID_00000096034888654882923550000017263097146097617569_);" points="0.6,5.8 0.6,1.1 18.6,1.1 
				18.6,5.8 			"/>
		</g>
		<g>
			<defs>
				<rect id="SVGID_00000090280291010521814000000003302976901721503395_" x="-1" y="-1" width="257.4" height="37.4"/>
			</defs>
			<clipPath id="SVGID_00000036931530605897752290000011103835695226002353_">
				<use xlink:href="#SVGID_00000090280291010521814000000003302976901721503395_"  style="overflow:visible;"/>
			</clipPath>
			<path style="clip-path:url(#SVGID_00000036931530605897752290000011103835695226002353_);fill:#FDC304;" d="M229.2,4.9
				c0,2.4-1.9,4.3-4.3,4.3c-2.4,0-4.3-1.9-4.3-4.3s1.9-4.3,4.3-4.3C227.3,0.6,229.2,2.5,229.2,4.9"/>
		</g>
		<g>
			<defs>
				<rect id="SVGID_00000013878048740600864630000012618337668926166462_" x="-1" y="-1" width="257.4" height="37.4"/>
			</defs>
			<clipPath id="SVGID_00000073689223217501691660000005072623894725714823_">
				<use xlink:href="#SVGID_00000013878048740600864630000012618337668926166462_"  style="overflow:visible;"/>
			</clipPath>
			<path style="clip-path:url(#SVGID_00000073689223217501691660000005072623894725714823_);fill:#8A1D12;" d="M242,4.9
				c0,2.4-1.9,4.3-4.3,4.3c-2.4,0-4.3-1.9-4.3-4.3s1.9-4.3,4.3-4.3C240.1,0.6,242,2.5,242,4.9"/>
		</g>
		<g>
			<defs>
				<rect id="SVGID_00000057145681479173183540000007796899278592735628_" x="-1" y="-1" width="257.4" height="37.4"/>
			</defs>
			<clipPath id="SVGID_00000137094569324727299510000013287677172632479134_">
				<use xlink:href="#SVGID_00000057145681479173183540000007796899278592735628_"  style="overflow:visible;"/>
			</clipPath>
			<path style="clip-path:url(#SVGID_00000137094569324727299510000013287677172632479134_);fill:#006479;" d="M254.9,4.9
				c0,2.4-1.9,4.3-4.3,4.3c-2.4,0-4.3-1.9-4.3-4.3s1.9-4.3,4.3-4.3C252.9,0.6,254.9,2.5,254.9,4.9"/>
		</g>
		<g>
			<defs>
				<rect id="SVGID_00000052812137430756827270000006394563452813313693_" x="-1" y="-1" width="257.4" height="37.4"/>
			</defs>
			<clipPath id="SVGID_00000132780241508554860250000016798912252774271673_">
				<use xlink:href="#SVGID_00000052812137430756827270000006394563452813313693_"  style="overflow:visible;"/>
			</clipPath>
			<path style="clip-path:url(#SVGID_00000132780241508554860250000016798912252774271673_);fill:#017BB2;" d="M229.2,17.7
				c0,2.4-1.9,4.3-4.3,4.3c-2.4,0-4.3-1.9-4.3-4.3s1.9-4.3,4.3-4.3C227.3,13.5,229.2,15.4,229.2,17.7"/>
		</g>
		<g>
			<defs>
				<rect id="SVGID_00000067220032328204554050000004635804497859934594_" x="-1" y="-1" width="257.4" height="37.4"/>
			</defs>
			<clipPath id="SVGID_00000036225950711723890440000015384754656518854056_">
				<use xlink:href="#SVGID_00000067220032328204554050000004635804497859934594_"  style="overflow:visible;"/>
			</clipPath>
			<path style="clip-path:url(#SVGID_00000036225950711723890440000015384754656518854056_);fill:#009640;" d="M242,17.7
				c0,2.4-1.9,4.3-4.3,4.3c-2.4,0-4.3-1.9-4.3-4.3s1.9-4.3,4.3-4.3C240.1,13.5,242,15.4,242,17.7"/>
		</g>
		<g>
			<defs>
				<rect id="SVGID_00000085959254744271617020000017913111008586823077_" x="-1" y="-1" width="257.4" height="37.4"/>
			</defs>
			<clipPath id="SVGID_00000162315639633303576400000009334041883613527425_">
				<use xlink:href="#SVGID_00000085959254744271617020000017913111008586823077_"  style="overflow:visible;"/>
			</clipPath>
			<path style="clip-path:url(#SVGID_00000162315639633303576400000009334041883613527425_);fill:#CA9F01;" d="M229.2,30.6
				c0,2.4-1.9,4.3-4.3,4.3c-2.4,0-4.3-1.9-4.3-4.3s1.9-4.3,4.3-4.3C227.3,26.3,229.2,28.2,229.2,30.6"/>
		</g>
	</g>
</g>
</svg>
