<svg width="193" height="53" viewBox="0 0 193 53" fill="none" xmlns="http://www.w3.org/2000/svg">
<g clip-path="url(#clip0_1026_8511)">
<path d="M170.176 28.2221C170.176 28.2221 164.118 43.0405 164.002 43.4756C163.821 44.1606 163.958 44.4758 164.464 45.0632C164.57 45.1883 164.877 45.5205 164.738 45.81C164.567 46.1782 164.141 46.0361 163.641 45.834C163.141 45.6319 156.425 43.1039 156.055 42.9223C155.884 42.8436 155.631 42.6843 155.713 42.3572C155.795 42.03 156.283 42.03 156.596 41.9735C157.638 41.7834 157.933 41.076 158.308 40.1717C161.415 32.5216 164.546 24.876 167.701 17.235C168.101 16.2639 168.396 15.4521 167.815 14.7259C167.43 14.2464 167.191 14.0819 167.357 13.6606C167.528 13.2119 168.225 13.6383 168.795 13.8627C169.364 14.0871 172.495 15.363 172.955 15.5532C174.592 16.2382 174.592 16.228 174.913 17.9081C176.112 24.1047 178.807 37.3988 178.807 37.3988C178.807 37.3988 184.084 24.783 184.531 23.6971C184.978 22.6113 184.938 21.9844 184.406 21.4295C184.12 21.1315 183.988 20.8009 184.124 20.5286C184.295 20.1706 184.723 20.4121 185.02 20.5286C185.62 20.7649 192.144 23.5361 192.478 23.6611C192.812 23.7862 193.065 23.9129 192.991 24.252C192.918 24.5912 192.524 24.6443 192.041 24.6717C191.05 24.7282 190.646 25.5691 190.273 26.4906C187.67 32.9287 181.654 47.3857 181.058 49.2046C180.462 51.0235 180.625 51.4962 181.058 51.9312C181.464 52.3371 181.465 52.5701 181.293 52.8304C181.12 53.0907 180.779 52.9435 180.628 52.8852C179.574 52.469 176.146 51.0132 175.458 50.7871C174.77 50.5611 174.431 50.15 174.313 49.4358C174.087 48.0656 170.176 28.2221 170.176 28.2221Z" fill="#B73337"/>
<path d="M144.495 25.8021L142.551 32.4251C142.551 32.4251 148.954 34.4256 151.608 35.2014C151.995 35.3145 153.265 35.6519 153.662 35.6673C154.518 35.7016 154.658 35.8985 155.307 35.1107C155.528 34.8469 155.649 34.5626 156.076 34.6996C156.502 34.8366 156.332 35.2357 156.127 35.9602C155.922 36.6847 154.415 41.5505 154.321 41.8639C154.227 42.1773 153.941 42.0951 153.339 41.893C145.065 39.1099 133.827 36.1126 133.572 36.027C133.317 35.9413 132.991 35.7958 133.041 35.5217C133.123 35.0696 133.563 35.1124 134.044 34.9874C134.631 34.8366 135.15 34.3639 135.413 33.4459C137.791 25.3002 140.193 17.1603 142.617 9.02599C142.881 8.13881 143.028 7.54621 142.398 6.86797C142.172 6.64703 141.664 6.20686 141.861 5.85918C142.058 5.5115 142.362 5.67592 143.086 5.88658C148.134 7.37322 160.492 11.0076 161.621 11.345C162.047 11.4718 163.033 11.7132 162.91 12.114C162.787 12.5148 161.198 17.6461 161.017 18.2113C160.935 18.4579 160.902 18.869 160.567 18.8844C160.442 18.8943 160.317 18.8561 160.219 18.7775C160.122 18.6989 160.057 18.5858 160.04 18.4613C159.81 16.8428 158.386 16.5945 157.108 16.2348C154.623 15.5223 148.712 13.7805 148.254 13.6572L146.275 19.9822C146.528 20.1021 150.248 21.2702 152.717 22.0375C153.661 22.327 154.492 22.4897 155.032 21.9981C155.345 21.7121 155.535 21.1195 156.077 21.313C156.42 21.4363 156.3 21.9193 156.175 22.3595C156.05 22.7997 154.256 28.7668 154.121 29.2104C153.986 29.654 153.887 30.25 153.385 30.1506C152.942 30.0701 152.955 29.4056 152.914 29.171C152.777 28.3574 152.209 28.0851 151.514 27.8847C149.513 27.2818 144.495 25.8021 144.495 25.8021Z" fill="#B73337"/>
<path d="M26.3928 42.5061C25.8039 44.4373 24.6022 46.1238 22.9696 47.3103C18.6906 50.496 13.9255 51.3438 8.77187 50.1072C7.87157 49.8999 7.77743 49.792 7.88355 48.9083C8.12831 46.8342 8.73935 42.5198 8.7616 42.4274C8.83007 42.1139 8.8797 41.7423 9.27508 41.7234C9.59515 41.7097 9.78856 41.9118 9.78856 42.3948C9.78856 43.1998 10.1309 43.9637 11.6217 44.2788C14.2507 44.8217 16.8609 44.4227 19.1082 42.7511C19.3977 42.5291 19.6502 42.2626 19.8562 41.9615C21.1039 40.1923 20.2653 37.9417 18.1446 37.5238C17.2482 37.3774 16.3382 37.3321 15.4317 37.3885C13.5284 37.4519 11.6268 37.6626 9.72181 37.6626C8.49927 37.6393 7.28229 37.4912 6.0898 37.2207C4.42783 36.8696 3.09621 35.9259 2.09663 34.5574C0.143698 31.8633 -0.621387 28.9346 0.532231 25.6924C1.2357 23.6937 2.53994 22.1265 4.27208 20.9567C8.08039 18.3637 12.2447 17.581 16.7291 18.7302C17.1176 18.8638 16.1591 24.2452 15.9863 25.6855C15.9709 25.8243 15.9161 26.5299 15.6251 26.6156C14.8224 26.857 14.9114 26.0418 14.8857 25.826C14.8053 25.0964 14.1737 24.538 13.3196 24.3582C11.3872 23.9403 8.28578 24.9268 7.00892 26.4477C5.73207 27.9686 6.30032 30.1044 8.20704 30.7192C8.6807 30.8772 9.17633 30.9593 9.6756 30.9624C11.6245 30.935 13.5769 30.8779 15.5327 30.7912C17.2614 30.7107 18.9747 30.7912 20.6572 31.2313C21.5871 31.4605 22.4619 31.8729 23.2307 32.4443C23.9995 33.0156 24.6468 33.7346 25.1348 34.5591C26.6718 37.022 27.2503 39.6613 26.3928 42.5061Z" fill="#B73337"/>
<path d="M130.785 32.6203C129.164 33.8434 127.188 34.5048 125.157 34.5043C119.79 34.5625 115.401 32.4268 111.946 28.3642C111.334 27.662 111.324 27.5181 111.946 26.857C113.373 25.3156 116.421 22.1625 116.497 22.1025C116.738 21.8884 116.996 21.6195 117.33 21.8336C117.599 22.0049 117.64 22.2943 117.356 22.69C116.882 23.3477 116.702 24.1663 117.736 25.3053C119.555 27.3057 121.914 28.5286 124.733 28.4995C125.1 28.491 125.463 28.424 125.81 28.3008C127.863 27.6021 128.522 25.2728 127.044 23.6765C126.4 23.028 125.687 22.4536 124.916 21.9638C123.329 20.8882 121.664 19.9308 120.106 18.8021C119.126 18.0577 118.223 17.2159 117.412 16.2896C116.269 15.017 115.742 13.4602 115.74 11.7526C115.74 8.40421 116.856 5.56624 119.714 3.61032C121.471 2.40114 123.461 1.89761 125.563 1.97468C130.198 2.12197 134.051 3.95287 137.031 7.54272C137.269 7.88526 133.301 11.6926 132.308 12.7631C132.214 12.8658 131.752 13.4088 131.463 13.306C130.667 13.0268 131.222 12.4154 131.331 12.2253C131.696 11.583 131.511 10.7541 130.924 10.1032C129.589 8.62344 126.474 7.58896 124.531 8.07023C122.588 8.55151 121.792 10.6256 122.977 12.2544C123.27 12.6625 123.626 13.021 124.033 13.3163C125.63 14.4501 127.252 15.5628 128.899 16.6544C130.354 17.6135 131.697 18.6994 132.808 20.049C133.429 20.7867 133.898 21.6408 134.186 22.5615C134.474 23.4822 134.576 24.451 134.486 25.4115C134.258 28.3231 133.164 30.8134 130.785 32.6203Z" fill="#B73337"/>
<path d="M109.21 0.0255634C107.172 0.0649559 105.133 0.0255629 103.095 0.0169993C102.687 0.0169993 101.619 -0.116593 101.57 0.34584C101.527 0.731201 101.741 0.871644 102.318 1.11142C103.319 1.52933 103.184 2.23325 103.174 3.16668C103.163 4.10011 103.033 17.7248 102.973 18.1512C102.667 17.7607 94.5283 5.0678 91.9061 0.868219C91.5638 0.318437 91.1855 0.0238504 90.506 0.0118613C88.9656 -0.010404 85.6674 0.0546794 84.7534 0.0495413C84.3597 0.0495413 83.8685 0.00843586 83.8205 0.409211C83.7675 0.845954 84.1851 0.965844 84.4744 1.11485C85.3028 1.54132 85.4038 1.84447 85.3644 2.74193C85.3011 4.14807 84.8509 26.9443 84.7499 28.347C84.7003 29.0424 84.5052 30.5085 83.5381 30.6421C82.3776 30.8031 81.539 28.9379 80.981 27.9017C78.6019 23.5189 70.0952 7.51698 68.2689 4.06243C67.3943 2.40281 68.8406 2.52099 68.6677 1.8359C68.5548 1.35977 68.1269 1.33237 66.3982 1.579C64.1525 1.89585 62.5419 2.07911 59.7229 2.5758C58.9732 2.70768 58.8192 3.30713 59.396 3.59144C60.1474 3.9631 60.4401 5.11747 60.274 5.97896C59.2385 11.3774 57.2685 22.2498 57.2685 22.2498C55.0554 22.6677 52.2398 21.8199 50.6155 20.3658C50.5676 22.976 52.8406 26.4185 55.6014 27.0591C58.963 27.8418 62.7439 26.0708 68.2946 27.2046C70.5864 27.6739 72.6626 28.3265 74.5437 29.7138C75.8445 30.6729 75.7127 31.2552 75.0007 31.769C74.6703 32.0105 74.542 32.2657 74.6121 32.5192C74.7046 32.8617 75.0982 32.7847 75.3875 32.7436C77.2702 32.4764 81.6297 32.0756 83.6459 31.9454C85.6622 31.8153 88.8612 31.5824 91.4474 31.6286C92.5737 31.6491 93.1385 31.6046 93.1881 31.1884C93.2429 30.7226 92.5993 30.5821 92.4487 30.5136C91.2078 29.9433 91.2934 28.7564 91.3225 27.3999C91.4166 22.8578 91.6648 12.7031 91.6648 12.7031C92.6729 14.2976 100.372 26.4939 103.045 30.8219C103.48 31.5241 103.713 31.9831 104.695 32.0551C106.28 32.1698 109.156 32.4404 109.37 32.4661C110.027 32.5432 110.386 32.562 110.438 32.1527C110.477 31.841 110.287 31.6286 109.883 31.3648C109.395 31.0463 109.289 30.9812 109.274 29.8645C109.258 28.7752 109.596 4.53172 109.596 4.01448C109.596 3.01939 109.541 1.83762 110.131 1.38889C110.722 0.940153 111.269 0.857942 111.263 0.419487C111.256 -0.018968 110.968 -0.00697821 109.21 0.0255634ZM63.7315 21.4003C64.2809 18.1752 64.6968 15.0409 65.3746 11.809C65.6074 12.0248 69.4825 19.0984 71.1564 22.6814C68.7893 21.6811 66.3297 21.4551 63.7315 21.4003Z" fill="#B73337"/>
<path d="M61.8401 32.8309C61.9034 32.1989 62.2817 29.7909 62.6223 27.9685C60.4348 28.1398 58.3142 28.7752 56.0668 28.3402C55.716 30.3201 54.9577 34.3861 54.8687 34.6772C54.8037 34.8948 54.7164 35.2544 54.511 35.3024C54.3056 35.3503 53.8657 35.0352 53.4926 34.7166C53.3813 34.6361 39.1151 22.1796 39.1151 22.1796C39.1151 22.1796 42.2131 13.6502 43.5773 9.84801C43.9556 8.79812 44.2054 8.27574 45.0099 7.51358C45.3248 7.207 45.9667 6.92269 45.7408 6.41744C45.5473 5.98241 45.0219 6.15197 44.6847 6.25816C41.7031 7.21728 39.1597 8.00513 36.1952 8.9985C35.6988 9.16978 35.591 9.34105 35.6081 9.51232C35.6218 9.66304 35.6919 9.82232 35.9881 9.95934C36.635 10.2573 36.6641 10.8825 36.5323 11.5008C36.2345 12.8984 32.2003 24.1047 32.012 24.4112C31.8785 24.0361 29.8588 17.8789 28.9962 15.2191C28.7668 14.5117 28.1404 13.1638 29.0629 12.2578C29.3248 11.9975 29.5901 11.744 29.4754 11.4768C29.3607 11.2096 29.0116 11.2233 28.8113 11.3055C28.5015 11.41 21.5148 13.938 20.3492 14.4038H20.3406C20.317 14.4268 20.2958 14.452 20.2773 14.4792C20.2394 14.5314 20.2144 14.5918 20.2043 14.6555C20.1942 14.7192 20.1992 14.7844 20.2191 14.8457C20.3149 15.1197 20.5614 15.1883 20.9294 15.2105C22.3312 15.3201 22.5006 16.2707 22.8567 17.4559C23.5772 19.8006 28.6265 35.3401 30.398 40.7831C30.9731 42.6534 30.8002 42.9068 30.196 43.5577C29.9341 43.8454 29.7202 44.0561 29.8776 44.3815C30.0351 44.7069 30.4972 44.5391 30.8344 44.4157C32.8284 43.6622 38.6068 41.5641 38.8088 41.4921C38.8633 41.4787 38.9144 41.4539 38.9588 41.4194C39.0032 41.3849 39.0398 41.3414 39.0662 41.2918C39.0927 41.2423 39.1085 41.1876 39.1125 41.1316C39.1165 41.0755 39.1086 41.0192 39.0895 40.9663C39.009 40.7077 38.7472 40.6238 38.3843 40.5964C37.6997 40.5416 37.306 40.2847 37.0458 39.9027C36.6042 39.1217 34.8293 32.8892 34.8293 32.8892C34.8293 32.8892 35.8391 30.1488 36.3595 28.7598C36.748 29.0476 42.5418 33.9665 45.1554 36.2204C45.6945 36.688 46.2885 37.2669 46.2662 37.6779C46.2474 38.0496 45.4601 38.2191 45.698 38.8254C45.8691 39.2605 46.523 38.9042 46.8961 38.7775C52.7737 36.801 58.1071 35.6792 61.4447 35.0009C61.8863 34.9119 63.1306 34.8194 63.1255 34.3039C63.1101 33.4424 61.7271 33.9493 61.8401 32.8309Z" fill="#B73337"/>
</g>
<defs>
<clipPath id="clip0_1026_8511">
<rect width="193" height="53" fill="white"/>
</clipPath>
</defs>
</svg>
