<?xml version="1.0" encoding="UTF-8" standalone="no"?>
<svg
   xmlns:svg="http://www.w3.org/2000/svg"
   xmlns="http://www.w3.org/2000/svg"
   viewBox="0 0 281 321"
   height="377.94666"
   width="332.93332"
   xml:space="preserve"
   id="svg2"
   version="1.1"><defs
     id="defs6" /><g
     transform=""
     id="g10"><g
       transform=""
       id="inverted"><path
         id="path14"
         d="M151.17 36.093C151.17 30.675 146.894 26.2729 141.631 26.2729C136.368 26.2729 132.091 30.675 132.091 36.093V284.756C132.091 290.174 136.368 294.689 141.631 294.689C146.894 294.689 151.17 290.287 151.17 284.756V195.134C151.17 194.456 151.719 194.005 152.377 194.005H183.846C184.504 194.005 185.052 194.569 185.052 195.134V285.546C185.052 304.622 165.644 320.086 141.631 320.086C117.618 320.086 98.2098 304.622 98.2098 285.546V34.6256C98.2098 15.5498 117.618 0.0859375 141.631 0.0859375C165.535 0.0859375 185.052 15.5498 185.052 34.6256V123.91C185.052 124.587 184.504 125.038 183.846 125.038H152.377C151.719 125.038 151.17 124.474 151.17 123.91V36.093Z" /><path
         id="path16"
         d="M1.17009 64.3425C-0.913246 78.7905 -0.145703 102.607 2.92448 116.039C6.21396 130.6 25.5122 160.06 34.0649 173.718C42.7272 187.376 54.2404 201.598 54.1307 220.674V266.163C54.1307 271.581 49.8544 275.983 44.5912 275.983C39.3281 275.983 35.0517 271.581 35.0517 266.163V196.293C35.0517 195.616 34.5035 195.051 33.8456 195.051H2.26658C1.60869 195.051 1.06044 195.616 1.06044 196.293V268.194C1.06044 287.27 20.4684 302.734 44.4816 302.734C68.4948 302.734 87.9027 287.27 87.9027 268.194V220.561C87.793 187.828 79.1308 183.087 67.8369 163.559C59.8325 149.45 39.9859 120.441 36.6965 105.88C33.6263 92.5612 33.7359 77.0974 34.9421 62.988C34.9421 57.57 39.2184 53.1679 44.4816 53.1679C49.7447 53.1679 54.0211 57.57 54.0211 62.988V125.069C54.0211 125.746 54.5693 126.198 55.2272 126.198H86.6965C87.3544 126.198 87.9027 125.634 87.9027 125.069V64.3425C87.9027 45.2667 68.4948 29.8029 44.4816 29.8029C20.578 29.8029 1.17009 45.2667 1.17009 64.3425Z" /><path
         id="path18"
         d="M230.232 169.15C229.574 169.15 229.026 169.715 229.026 170.279V271.302C229.026 271.979 229.574 272.544 230.232 272.544H235.934C242.294 272.544 247.447 267.239 247.447 260.692V181.002C247.447 174.455 242.294 169.15 235.934 169.15H230.232ZM230.232 58.3073C229.574 58.3073 229.026 58.8717 229.026 59.5489V141.835C229.026 142.512 229.574 143.076 230.232 143.076H234.947C241.307 143.076 246.46 137.771 246.46 131.224V70.272C246.46 63.7253 241.307 58.4202 234.947 58.4202H230.232V58.3073ZM196.46 32.459H244.816C264.772 32.459 281 49.1644 281 69.7077V121.856C281 136.53 271.68 148.833 258.851 153.009V153.686C271.68 157.863 281 170.279 281 184.953V264.642C281 282.702 266.745 297.376 249.202 297.376H196.57C195.912 297.376 195.364 296.812 195.364 296.247V33.5877C195.254 32.9105 195.802 32.459 196.46 32.459Z" /></g></g>
<style type="text/css">
  g {
  fill: #0F0865;
  }
  g:target {
  fill: #fff;
  }
 </style>
</svg>