<?xml version="1.0" encoding="UTF-8" standalone="no"?>
<svg
   xmlns:dc="http://purl.org/dc/elements/1.1/"
   xmlns:cc="http://creativecommons.org/ns#"
   xmlns:rdf="http://www.w3.org/1999/02/22-rdf-syntax-ns#"
   xmlns:svg="http://www.w3.org/2000/svg"
   xmlns="http://www.w3.org/2000/svg"
   viewBox="0 0 332.93332 377.94666"
   height="377.94666"
   width="332.93332"
   xml:space="preserve"
   id="svg2"
   version="1.1"><metadata
     id="metadata8"><rdf:RDF><cc:Work
         rdf:about=""><dc:format>image/svg+xml</dc:format><dc:type
           rdf:resource="http://purl.org/dc/dcmitype/StillImage" /></cc:Work></rdf:RDF></metadata><defs
     id="defs6" /><g
     transform="matrix(1.3333333,0,0,-1.3333333,0,377.94667)"
     id="g10"><g
       transform="scale(0.1)"
       id="inverted"><path
         id="path14"
         d="m 1346.6,2515.59 c 0,48.24 -39.11,87.31 -87.4,87.31 -48.29,0 -87.4,-39.07 -87.4,-87.31 V 312.898 c 0,-48.339 39.11,-87.5 87.4,-87.5 48.29,0 87.4,39.161 87.4,87.5 V 1106.8 c 0,5.77 4.79,10.45 10.51,10.45 h 287.22 c 5.76,0 10.5,-4.68 10.5,-10.45 V 305.969 C 1654.83,137.02 1477.67,0 1259.2,0 1040.63,0 863.523,137.02 863.523,305.969 V 2528.77 c 0,168.86 177.107,305.88 395.677,305.88 218.47,0 395.63,-137.02 395.63,-305.88 V 1738.1 c 0,-5.86 -4.74,-10.45 -10.5,-10.45 h -287.22 c -5.72,0 -10.51,4.59 -10.51,10.45 v 777.49" /><path
         id="path16"
         d="M 10.4414,2265.38 C -8.01563,2136.85 -1.52734,1926.1 26.1172,1807.73 56.4922,1678.71 231.645,1417.96 310.555,1296.86 389.566,1175.85 494.949,1049.49 493.375,880.922 V 477.18 c 0,-48.25 -39.109,-87.41 -87.406,-87.41 -48.145,0 -87.254,39.16 -87.254,87.41 v 618.79 c 0,5.76 -4.785,10.55 -10.645,10.55 H 20.9453 c -5.8711,0 -10.5039,-4.79 -10.5039,-10.55 V 458.719 c 0,-168.957 177.1056,-305.969 395.5276,-305.969 218.574,0 395.683,137.012 395.683,305.969 v 422.203 c -1.324,289.568 -80.332,331.748 -182.867,505.398 -73.445,124.71 -254.121,381.95 -284.398,510.97 -27.735,118.36 -26.516,255.39 -15.672,379.9 0,48.25 39.109,87.41 87.254,87.41 48.297,0 87.406,-39.16 87.406,-87.41 v -550.32 c 0,-5.77 4.746,-10.45 10.645,-10.45 h 287.085 c 5.911,0 10.547,4.68 10.547,10.45 v 538.51 c 0,169.06 -177.109,305.97 -395.683,305.97 -218.422,0 -395.5276,-136.91 -395.5276,-305.97" /><path
         id="path18"
         d="m 1726.57,2547.82 h 440.8 c 182.04,0 329.61,-147.57 329.61,-329.52 v -462.24 c 0,-129.59 -84.97,-238.98 -202.16,-276.48 v -6.24 c 117.19,-37.4 202.16,-146.89 202.16,-276.58 V 491.148 c 0,-160.367 -130.2,-290.457 -290.45,-290.457 l -479.96,-0.293 c -5.91,0 -10.6,4.793 -10.6,10.454 V 2537.37 c 0,5.66 4.69,10.45 10.6,10.45 m 308.27,-229.22 c -5.97,0 -10.65,-4.78 -10.65,-10.55 v -729.33 c 0,-5.97 4.68,-10.65 10.65,-10.65 h 43.36 c 58.01,0 105.08,47.16 105.08,105.18 v 540.18 c 0,58 -47.07,105.17 -105.08,105.17 z m 0,-982.29 c -5.97,0 -10.65,-4.69 -10.65,-10.45 V 430.59 c 0,-5.86 4.68,-10.649 10.65,-10.649 h 51.85 c 58.12,0 105.09,47.18 105.09,105.188 v 706.011 c 0,58.19 -46.97,105.17 -105.09,105.17 h -51.85" /></g></g>
<style type="text/css">
  g {
  fill: #100f0d;
  }
  g:target {
  fill: #fff;
  }
 </style>
</svg>